<svg width="104" height="104" viewBox="0 0 104 104" fill="none" xmlns="http://www.w3.org/2000/svg">
<path fill-rule="evenodd" clip-rule="evenodd" d="M52 5.41797C35.867 5.41797 22.75 18.652 22.75 34.9756C22.75 40.505 25.1853 47.3646 28.73 54.207C36.5343 69.274 49.5343 84.4493 49.5343 84.4493C50.1497 85.1686 51.051 85.5846 52 85.5846C52.949 85.5846 53.8503 85.1686 54.4657 84.4493C54.4657 84.4493 67.4657 69.274 75.27 54.207C78.8147 47.3646 81.25 40.505 81.25 34.9756C81.25 18.652 68.133 5.41797 52 5.41797ZM52 11.918C64.5667 11.918 74.75 22.2616 74.75 34.9756C74.75 41.3283 70.72 49.605 66.066 57.3226C61.074 65.5993 55.2327 73.2 52 77.2213C48.7673 73.2 42.926 65.5993 37.934 57.3226C33.28 49.605 29.25 41.3283 29.25 34.9756C29.25 22.2616 39.4333 11.918 52 11.918Z" fill="#F6871F"/>
<path fill-rule="evenodd" clip-rule="evenodd" d="M52 22.75C45.422 22.75 40.0833 28.0887 40.0833 34.6667C40.0833 41.2447 45.422 46.5833 52 46.5833C58.578 46.5833 63.9166 41.2447 63.9166 34.6667C63.9166 28.0887 58.578 22.75 52 22.75ZM52 29.25C54.99 29.25 57.4166 31.6767 57.4166 34.6667C57.4166 37.6567 54.99 40.0833 52 40.0833C49.01 40.0833 46.5833 37.6567 46.5833 34.6667C46.5833 31.6767 49.01 29.25 52 29.25Z" fill="#F6871F"/>
<path fill-rule="evenodd" clip-rule="evenodd" d="M72.7307 75.3024C76.2537 76.3598 79.157 77.6684 81.1633 79.2024C82.4633 80.1904 83.4166 81.1568 83.4166 82.3354C83.4166 83.0288 83.0223 83.6571 82.4677 84.2854C81.549 85.3211 80.184 86.2528 78.494 87.1194C72.5226 90.1744 62.868 92.0854 52 92.0854C41.132 92.0854 31.4773 90.1744 25.506 87.1194C23.816 86.2528 22.451 85.3211 21.5323 84.2854C20.9776 83.6571 20.5833 83.0288 20.5833 82.3354C20.5833 81.1568 21.5366 80.1904 22.8366 79.2024C24.843 77.6684 27.7463 76.3598 31.2693 75.3024C32.9853 74.7868 33.9603 72.9711 33.4446 71.2551C32.929 69.5348 31.1133 68.5598 29.3973 69.0754C24.0326 70.6918 19.864 72.9061 17.3593 75.3544C15.158 77.4994 14.0833 79.9001 14.0833 82.3354C14.0833 85.3774 15.8036 88.4108 19.3006 90.9414C25.4366 95.3788 37.7606 98.5854 52 98.5854C66.2393 98.5854 78.5633 95.3788 84.6993 90.9414C88.1963 88.4108 89.9166 85.3774 89.9166 82.3354C89.9166 79.9001 88.842 77.4994 86.6406 75.3544C84.136 72.9061 79.9673 70.6918 74.6026 69.0754C72.8866 68.5598 71.071 69.5348 70.5553 71.2551C70.0396 72.9711 71.0146 74.7868 72.7307 75.3024Z" fill="#F6871F"/>
</svg>
