<svg width="638" height="60" viewBox="0 0 638 60" fill="none" xmlns="http://www.w3.org/2000/svg">
<g clip-path="url(#clip0_207_215)">
<path d="M53.3275 0H5.2258C2.35349 0 0.0250244 2.32847 0.0250244 5.20078V53.3025C0.0250244 56.1748 2.35349 58.5033 5.2258 58.5033H53.3275C56.1998 58.5033 58.5283 56.1748 58.5283 53.3025V5.20078C58.5283 2.32847 56.1998 0 53.3275 0Z" fill="#005295"/>
<path d="M58.6324 37.9334L58.5205 24.6449L46.6382 30.1742C46.837 28.1218 46.6641 25.997 46.062 23.8947C43.5036 14.9707 34.2408 9.78879 25.3128 12.2457V12.2404L0 19.5179V32.3662L12.9909 26.5854C12.7355 28.7481 12.8955 30.9932 13.5337 33.2194C16.1092 42.2001 25.4761 47.3958 34.4595 44.8203C34.7218 44.7463 34.9807 44.6637 35.2362 44.5759L58.6324 37.9334Z" fill="white"/>
<path d="M58.542 32.4215L58.5384 24.6074L41.3935 29.6792C41.5311 28.2461 41.4108 26.763 40.9901 25.2955C39.2034 19.0624 32.7347 15.4461 26.4998 17.1595V17.1562L0.0172119 24.8655V32.3734L17.8959 27.1725C17.7178 28.683 17.8305 30.2521 18.2743 31.8056C20.073 38.0784 26.6159 41.7049 32.8894 39.9088C33.071 39.8555 33.2524 39.797 33.4323 39.7369L58.542 32.4215Z" fill="#949CA1"/>
<path d="M84.918 13.5947H115.792C129.506 13.5947 135.268 17.7272 135.268 25.3676C135.268 31.5044 130.634 34.3862 124.685 35.8261V35.9517C131.072 36.3267 137.21 39.396 137.21 47.162C137.21 50.6682 135.894 53.6119 133.89 55.3031C130.947 57.8081 128.004 58.8093 118.234 58.8093H84.918V13.5947ZM103.956 31.8812H109.592C115.103 31.8812 116.857 29.9387 116.857 26.9333C116.857 23.7401 115.479 21.987 109.53 21.987H103.956V31.8812ZM103.956 50.7938H109.592C116.168 50.7938 118.547 49.1028 118.547 45.3454C118.547 41.588 116.168 39.8967 109.592 39.8967H103.956V50.7938Z" fill="#949CA1"/>
<path d="M145.224 13.5947H177.413C189.751 13.5947 197.39 16.0377 197.39 26.0575C197.39 32.0068 193.257 35.7642 187.621 36.7654V37.3917C192.004 37.5173 195.637 39.0829 196.389 43.6541L198.831 58.8093H179.793L178.227 48.7277C177.351 43.1534 176.537 42.4017 170.023 42.4017H164.262V58.8093H145.224V13.5947ZM164.262 33.6343H171.527C175.597 33.6343 178.729 32.3819 178.729 28.1238C178.729 24.1152 175.848 22.737 171.214 22.737H164.262V33.6343Z" fill="#949CA1"/>
<path d="M223.691 13.5947H247.426L270.472 58.8093H249.493L246.174 51.2945H222.815L219.308 58.8093H200.646L223.691 13.5947ZM241.727 41.4003L234.713 25.6188L227.387 41.4003H241.727Z" fill="#949CA1"/>
<path d="M310.301 30.3777C309.799 24.8052 307.42 22.3002 302.284 22.3002C294.894 22.3002 292.389 28.6865 292.389 36.2013C292.389 43.7178 294.894 50.1041 302.284 50.1041C308.046 50.1041 310.864 47.4116 311.051 41.5879H330.465C330.34 45.6586 329.901 49.6034 326.394 52.9859C321.322 57.8701 312.43 60 302.723 60C280.053 60 272.6 50.6684 272.6 36.2013C272.6 25.4934 277.422 12.4043 302.723 12.4043C314.058 12.4043 321.948 14.5342 325.894 18.2916C328.712 20.9841 329.651 23.7403 329.714 30.3777H310.301Z" fill="#949CA1"/>
<path d="M338.542 13.5947H381.877V23.1138H356.954V31.4426H380.312V40.9617H356.954V49.2902H382.129V58.8093H338.542V13.5947Z" fill="#949CA1"/>
<path d="M424.788 24.6159H409.944V13.5947H458.667V24.6159H443.825V58.8093H424.788V24.6159Z" fill="#005295"/>
<path d="M516.357 52.1722C511.47 56.8689 503.643 60 491.995 60C469.888 60 461.747 49.729 461.747 36.2013C461.747 27.4341 465.253 21.1097 470.452 17.4143C474.774 14.3468 480.346 12.4043 491.995 12.4043C514.101 12.4043 522.242 22.6753 522.242 36.2013C522.242 43.1536 520.114 48.6022 516.357 52.1722ZM491.995 22.6753C485.733 22.6753 481.16 26.9334 481.16 36.2013C481.16 45.4709 485.733 49.729 491.995 49.729C498.258 49.729 502.829 45.4709 502.829 36.2013C502.829 26.9334 498.258 22.6753 491.995 22.6753Z" fill="#005295"/>
<path d="M582.862 52.1722C577.975 56.8689 570.148 60 558.5 60C536.394 60 528.251 49.729 528.251 36.2013C528.251 27.4341 531.759 21.1097 536.957 17.4143C541.279 14.3468 546.853 12.4043 558.5 12.4043C580.608 12.4043 588.749 22.6753 588.749 36.2013C588.749 43.1536 586.619 48.6022 582.862 52.1722ZM558.5 22.6753C552.238 22.6753 547.667 26.9334 547.667 36.2013C547.667 45.4709 552.238 49.729 558.5 49.729C564.762 49.729 569.335 45.4709 569.335 36.2013C569.335 26.9334 564.762 22.6753 558.5 22.6753Z" fill="#005295"/>
<path d="M597.327 13.5947H616.365V47.7883H637.218V58.8093H597.327V13.5947Z" fill="#005295"/>
</g>
<defs>
<clipPath id="clip0_207_215">
<rect width="637.218" height="60" fill="white"/>
</clipPath>
</defs>
</svg>
