<svg width="31" height="30" viewBox="0 0 31 30" fill="none" xmlns="http://www.w3.org/2000/svg">
<g clip-path="url(#clip0_66_187)">
<path d="M28.628 21.6645C31.527 17.5971 31.0839 12.0246 27.1242 8.39461C25.315 6.73611 23.0086 5.70363 20.5171 5.41529C20.5017 5.39591 20.4854 5.37718 20.4683 5.35916C18.3009 3.1077 15.187 1.81641 11.9251 1.81641C5.71771 1.81641 0.5 6.44139 0.5 12.3633C0.5 14.4396 1.14494 16.4299 2.37008 18.1489L0.658613 23.5223C0.605992 23.6874 0.603383 23.8645 0.651114 24.0311C0.698845 24.1977 0.794784 24.3465 0.926864 24.4588C1.05894 24.571 1.22127 24.6417 1.39342 24.6619C1.56557 24.6822 1.73985 24.651 1.89436 24.5725L7.09906 21.926C8.16793 22.3862 9.30137 22.6882 10.4751 22.8256C12.7393 25.2066 15.87 26.4258 19.073 26.4258C20.738 26.4258 22.397 26.0865 23.8988 25.4415L29.1038 28.0881C29.2271 28.1509 29.3635 28.1836 29.5019 28.1836C30.0951 28.1836 30.5203 27.6056 30.3395 27.0379L28.628 21.6645ZM7.45379 20.1575C7.33236 20.0998 7.19931 20.0708 7.06488 20.0726C6.93046 20.0744 6.79825 20.107 6.67842 20.168L2.97137 22.0529L4.18191 18.2522C4.22533 18.1159 4.23483 17.9711 4.20958 17.8303C4.18432 17.6895 4.12509 17.557 4.03701 17.4443C2.87299 15.9543 2.2577 14.1973 2.2577 12.3633C2.2577 7.51699 6.59445 3.57422 11.9251 3.57422C14.0717 3.57422 16.1383 4.22455 17.8146 5.39566C12.1692 5.96332 7.64797 10.3727 7.64797 15.8789C7.64797 17.5915 8.08695 19.2402 8.91459 20.7173C8.414 20.5685 7.92562 20.3813 7.45379 20.1575ZM24.3197 23.6835C24.1999 23.6226 24.0677 23.59 23.9332 23.5882C23.7988 23.5864 23.6658 23.6154 23.5443 23.6731C22.1741 24.324 20.628 24.668 19.073 24.668C13.7424 24.668 9.40566 20.7252 9.40566 15.8789C9.40566 11.0326 13.7424 7.08984 19.073 7.08984C24.4037 7.08984 28.7404 11.0326 28.7404 15.8789C28.7404 17.7129 28.1251 19.4699 26.9611 20.9599C26.873 21.0726 26.8138 21.2051 26.7885 21.3459C26.7633 21.4866 26.7728 21.6315 26.8162 21.7678L28.0267 25.5685L24.3197 23.6835Z" fill="white"/>
<path d="M15.4991 16.7578C15.9845 16.7578 16.378 16.3643 16.378 15.8789C16.378 15.3935 15.9845 15 15.4991 15C15.0137 15 14.6202 15.3935 14.6202 15.8789C14.6202 16.3643 15.0137 16.7578 15.4991 16.7578Z" fill="white"/>
<path d="M19.0145 16.7578C19.4999 16.7578 19.8934 16.3643 19.8934 15.8789C19.8934 15.3935 19.4999 15 19.0145 15C18.5291 15 18.1356 15.3935 18.1356 15.8789C18.1356 16.3643 18.5291 16.7578 19.0145 16.7578Z" fill="white"/>
<path d="M22.5299 16.7578C23.0153 16.7578 23.4088 16.3643 23.4088 15.8789C23.4088 15.3935 23.0153 15 22.5299 15C22.0445 15 21.651 15.3935 21.651 15.8789C21.651 16.3643 22.0445 16.7578 22.5299 16.7578Z" fill="white"/>
</g>
<defs>
<clipPath id="clip0_66_187">
<rect width="30" height="30" fill="white" transform="translate(0.5)"/>
</clipPath>
</defs>
</svg>
