<svg width="45" height="45" viewBox="0 0 45 45" fill="none" xmlns="http://www.w3.org/2000/svg">
<g clip-path="url(#clip0_302_528)">
<path d="M39.7266 3.51562H37.6172V0H34.1016V3.51562H10.8984V0H7.38281V3.51562H5.27344C2.36566 3.51562 0 5.88129 0 8.78906V39.7266C0 42.6343 2.36566 45 5.27344 45H39.7266C42.6343 45 45 42.6343 45 39.7266V8.78906C45 5.88129 42.6343 3.51562 39.7266 3.51562ZM41.4844 39.7266C41.4844 40.6958 40.6958 41.4844 39.7266 41.4844H5.27344C4.30418 41.4844 3.51562 40.6958 3.51562 39.7266V16.5234H41.4844V39.7266ZM41.4844 13.0078H3.51562V8.78906C3.51562 7.8198 4.30418 7.03125 5.27344 7.03125H7.38281V10.5469H10.8984V7.03125H34.1016V10.5469H37.6172V7.03125H39.7266C40.6958 7.03125 41.4844 7.8198 41.4844 8.78906V13.0078Z" fill="#F6871F"/>
<path d="M10.1953 20.2148H6.67969V23.7305H10.1953V20.2148Z" fill="#F6871F"/>
<path d="M17.2266 20.2148H13.7109V23.7305H17.2266V20.2148Z" fill="#F6871F"/>
<path d="M24.2578 20.2148H20.7422V23.7305H24.2578V20.2148Z" fill="#F6871F"/>
<path d="M31.2891 20.2148H27.7734V23.7305H31.2891V20.2148Z" fill="#F6871F"/>
<path d="M38.3203 20.2148H34.8047V23.7305H38.3203V20.2148Z" fill="#F6871F"/>
<path d="M10.1953 27.2461H6.67969V30.7617H10.1953V27.2461Z" fill="#F6871F"/>
<path d="M17.2266 27.2461H13.7109V30.7617H17.2266V27.2461Z" fill="#F6871F"/>
<path d="M24.2578 27.2461H20.7422V30.7617H24.2578V27.2461Z" fill="#F6871F"/>
<path d="M31.2891 27.2461H27.7734V30.7617H31.2891V27.2461Z" fill="#F6871F"/>
<path d="M10.1953 34.2773H6.67969V37.793H10.1953V34.2773Z" fill="#F6871F"/>
<path d="M17.2266 34.2773H13.7109V37.793H17.2266V34.2773Z" fill="#F6871F"/>
<path d="M24.2578 34.2773H20.7422V37.793H24.2578V34.2773Z" fill="#F6871F"/>
<path d="M31.2891 34.2773H27.7734V37.793H31.2891V34.2773Z" fill="#F6871F"/>
<path d="M38.3203 27.2461H34.8047V30.7617H38.3203V27.2461Z" fill="#F6871F"/>
</g>
<defs>
<clipPath id="clip0_302_528">
<rect width="45" height="45" fill="white"/>
</clipPath>
</defs>
</svg>
