<svg width="100" height="100" viewBox="0 0 100 100" fill="none" xmlns="http://www.w3.org/2000/svg">
<circle cx="50" cy="50" r="50" fill="#FF8600"/>
<g clip-path="url(#clip0_76_103)">
<path fill-rule="evenodd" clip-rule="evenodd" d="M42.1279 55.5857H52.7185C53.1542 55.5857 53.5079 55.232 53.5079 54.7963C53.5079 54.3605 53.1542 54.0068 52.7185 54.0068H42.1279C41.6922 54.0068 41.3385 54.3605 41.3385 54.7963C41.3385 55.232 41.6921 55.5857 42.1279 55.5857Z" fill="#2E294E"/>
<path fill-rule="evenodd" clip-rule="evenodd" d="M48.7926 54.796V73.8028C48.7926 74.2387 49.1463 74.5923 49.582 74.5923C50.0173 74.5923 50.3715 74.2386 50.3715 73.8028V54.796C50.3715 54.3602 50.0173 54.0066 49.582 54.0066C49.1463 54.0066 48.7926 54.3603 48.7926 54.796Z" fill="#2E294E"/>
<path fill-rule="evenodd" clip-rule="evenodd" d="M31.8858 25.4072C28.8131 25.4072 26.3179 27.9025 26.3179 30.9756C26.3179 34.0487 28.8131 36.5435 31.8858 36.5435C34.9589 36.5435 37.4542 34.0488 37.4542 30.9756C37.4542 27.9024 34.9589 25.4072 31.8858 25.4072ZM31.8858 26.9862C34.0879 26.9862 35.8753 28.7736 35.8753 30.9756C35.8753 33.1772 34.0879 34.9645 31.8858 34.9645C29.6841 34.9645 27.8968 33.1772 27.8968 30.9756C27.8968 28.7735 29.6842 26.9862 31.8858 26.9862Z" fill="#2E294E"/>
<path fill-rule="evenodd" clip-rule="evenodd" d="M68.1142 25.4072C65.041 25.4072 62.5458 27.9025 62.5458 30.9756C62.5458 34.0487 65.041 36.5435 68.1142 36.5435C71.1868 36.5435 73.6821 34.0488 73.6821 30.9756C73.6821 27.9024 71.1868 25.4072 68.1142 25.4072ZM68.1142 26.9862C70.3158 26.9862 72.1032 28.7736 72.1032 30.9756C72.1032 33.1772 70.3158 34.9645 68.1142 34.9645C65.9121 34.9645 64.1247 33.1772 64.1247 30.9756C64.1247 28.7735 65.9121 26.9862 68.1142 26.9862Z" fill="#2E294E"/>
<path fill-rule="evenodd" clip-rule="evenodd" d="M36.2374 47.8719C36.3679 48.1351 36.6385 48.3102 36.9443 48.3102L37.2374 48.2534L44.5069 45.3476C45.6258 44.9008 46.8969 45.4455 47.3443 46.5644C47.7911 47.6829 47.2459 48.954 46.1274 49.4013L36.5269 53.2386C35.6095 53.6054 34.5706 53.3086 33.9827 52.5381C33.7775 52.2691 33.4232 52.1607 33.1022 52.2691C32.7817 52.3775 32.5659 52.6786 32.5659 53.017V56.9818C32.5659 57.3829 32.8664 57.7197 33.2644 57.766L39.6544 58.5039C41.1644 58.6781 42.3044 59.9571 42.3044 61.4776V73.8029C42.3044 74.2388 42.658 74.5924 43.0938 74.5924C43.5296 74.5924 43.8832 74.2387 43.8832 73.8029V61.4776C43.8832 59.155 42.1422 57.2018 39.8353 56.9355L34.1448 56.2782V54.6297C35.0553 55.0482 36.1248 55.0998 37.1127 54.705L46.7138 50.8677C48.6411 50.0967 49.5806 47.9061 48.8101 45.9782C48.0396 44.0503 45.849 43.1108 43.9212 43.8813L37.2706 46.5398L33.4501 40.2866C32.9107 39.4035 32.0312 38.7819 31.0191 38.5677C30.988 38.5614 30.957 38.5545 30.9254 38.5482C29.8648 38.3239 28.759 38.5682 27.8916 39.2181C27.0243 39.8687 26.4795 40.8613 26.3974 41.9424C25.9332 48.0508 25.0021 60.2929 25.0021 60.2929C25.0005 60.3129 25 60.3329 25 60.3529C25 62.6729 26.7374 64.6245 29.041 64.8939L34.7384 65.6297V73.8028C34.7384 74.2387 35.0921 74.5923 35.5278 74.5923C35.9635 74.5923 36.3172 74.2386 36.3172 73.8028V64.9355C36.3172 64.5382 36.0225 64.2034 35.6288 64.1524L29.2288 63.3266C27.7293 63.1535 26.595 61.8913 26.5788 60.385C26.5788 60.3808 27.9714 42.0619 27.9714 42.0619C28.0193 41.435 28.3351 40.8588 28.8383 40.4819C29.342 40.1045 29.983 39.9629 30.5988 40.0929L30.6919 40.1124C31.2793 40.2367 31.7893 40.5977 32.1024 41.1098C33.2966 43.0646 35.7171 47.0267 36.1893 47.7999C36.2053 47.825 36.2211 47.8492 36.2374 47.8719Z" fill="#2E294E"/>
<path fill-rule="evenodd" clip-rule="evenodd" d="M29.9695 49.0204L32.5064 53.1736C33.4627 54.7388 35.409 55.3862 37.1127 54.7052C37.5174 54.5436 37.7148 54.0836 37.5527 53.6794C37.3912 53.2746 36.9311 53.0773 36.5269 53.2388C35.5385 53.6341 34.409 53.2588 33.8537 52.3504L31.3169 48.1972C31.0896 47.8257 30.6032 47.7083 30.2317 47.9351C29.86 48.1626 29.7421 48.6489 29.9695 49.0204Z" fill="#2E294E"/>
<path fill-rule="evenodd" clip-rule="evenodd" d="M61.999 47.7361L54.3547 48.8172C52.2989 49.1077 50.8663 51.0129 51.1569 53.0687C51.4474 55.1239 53.3526 56.5571 55.4084 56.2666L64.81 54.9365C65.1759 54.8849 65.5274 54.7807 65.8553 54.6297V56.278L60.1648 56.9354C57.8579 57.2017 56.1169 59.1548 56.1169 61.4775V73.8027C56.1169 74.2386 56.4706 74.5922 56.9063 74.5922C57.3421 74.5922 57.6957 74.2385 57.6957 73.8027V61.4775C57.6957 59.957 58.8357 58.678 60.3457 58.5038L66.7336 57.7658H66.732C67.1273 57.7227 67.4341 57.388 67.4341 56.9816V53.0164C67.4341 52.678 67.2183 52.3774 66.8978 52.269C66.5773 52.1601 66.223 52.2686 66.0173 52.5374C65.6715 52.9901 65.1594 53.2927 64.5889 53.3733L55.1873 54.7027C53.9941 54.8716 52.8888 54.0401 52.7204 52.847C52.5515 51.6543 53.383 50.5491 54.5757 50.3801L62.5867 49.2475L62.4783 49.2548L63.152 48.8769L67.4235 41.8848C67.9698 40.9911 68.9704 40.478 70.0152 40.5569C70.0299 40.558 70.0441 40.559 70.0588 40.5601C71.4662 40.6664 72.573 41.8064 72.6372 43.2158L73.4209 60.3695C73.4125 61.8822 72.2756 63.1522 70.7709 63.3264L64.5041 64.0501C64.1099 64.0953 63.8109 64.4264 63.8056 64.8233L63.6824 73.7917C63.6767 74.2275 64.0256 74.5859 64.4609 74.5922C64.8967 74.598 65.2551 74.2491 65.2614 73.8132L65.3746 65.5385L70.952 64.8948C73.2588 64.6284 74.9998 62.6747 74.9998 60.3527C74.9998 60.3405 74.9993 60.3285 74.9988 60.3164C74.9988 60.3164 74.4756 48.8617 74.2145 43.1438C74.1135 40.9364 72.3809 39.1517 70.1777 38.9858C70.1629 38.9848 70.1482 38.9832 70.134 38.9821C68.4983 38.8589 66.9314 39.6621 66.0762 41.0616L61.999 47.7361Z" fill="#2E294E"/>
<path fill-rule="evenodd" clip-rule="evenodd" d="M57.4574 27.7756C57.4574 27.1477 57.2079 26.5451 56.7637 26.1009C56.3195 25.6566 55.7174 25.4072 55.089 25.4072H44.0748C42.7664 25.4072 41.7063 26.4678 41.7063 27.7756V37.8093C41.7063 38.325 42.0073 38.7935 42.4768 39.0071C42.9463 39.2208 43.4973 39.1403 43.8863 38.8013C44.6457 38.1398 45.7158 37.2071 46.312 36.6871C46.4563 36.5619 46.6405 36.493 46.831 36.493H55.0889C55.7174 36.493 56.3195 36.2435 56.7636 35.7993C57.2078 35.355 57.4573 34.7524 57.4573 34.1246V27.7756H57.4574ZM43.2852 37.2309V27.7756C43.2852 27.3399 43.6384 26.9862 44.0747 26.9862H55.0889C55.2984 26.9862 55.4994 27.0693 55.6474 27.2178C55.7952 27.3656 55.8784 27.5662 55.8784 27.7756V34.1246C55.8784 34.334 55.7953 34.5346 55.6474 34.6824C55.4995 34.8309 55.2984 34.914 55.0889 34.914H46.8311C46.259 34.914 45.7064 35.1208 45.2748 35.4966L43.2852 37.2309Z" fill="#2E294E"/>
<path fill-rule="evenodd" clip-rule="evenodd" d="M46.0648 30.2976H53.2184C53.6543 30.2976 54.0079 29.9439 54.0079 29.5082C54.0079 29.0724 53.6542 28.7188 53.2184 28.7188H46.0648C45.629 28.7188 45.2753 29.0724 45.2753 29.5082C45.2753 29.9439 45.6289 30.2976 46.0648 30.2976Z" fill="#2E294E"/>
<path fill-rule="evenodd" clip-rule="evenodd" d="M46.0648 33.1768H49.5821C50.0174 33.1768 50.3716 32.8231 50.3716 32.3873C50.3716 31.9515 50.0174 31.5979 49.5821 31.5979H46.0648C45.629 31.5979 45.2753 31.9516 45.2753 32.3873C45.2752 32.8231 45.6289 33.1768 46.0648 33.1768Z" fill="#2E294E"/>
<path fill-rule="evenodd" clip-rule="evenodd" d="M62.4379 55.2725L64.81 54.9367C65.9232 54.7793 66.9074 54.1325 67.4937 53.1736L70.0305 49.0204C70.2579 48.6488 70.14 48.1625 69.7684 47.9352C69.3968 47.7083 68.9105 47.8257 68.6831 48.1973L66.1463 52.3504C65.8063 52.9067 65.2347 53.282 64.5889 53.3736L62.2168 53.7089C61.7852 53.77 61.4842 54.17 61.5452 54.6015C61.6063 55.0325 62.0063 55.3335 62.4379 55.2725Z" fill="#2E294E"/>
</g>
<defs>
<clipPath id="clip0_76_103">
<rect width="50" height="50" fill="white" transform="translate(25 25)"/>
</clipPath>
</defs>
</svg>
