<svg width="100" height="100" viewBox="0 0 100 100" fill="none" xmlns="http://www.w3.org/2000/svg">
<path d="M50 15.3881C35.8477 15.3881 24.3338 26.902 24.3338 41.0543C24.3338 47.6998 26.3522 51.1494 28.4891 54.8014C30.8107 58.7691 33.4418 63.2666 34.0451 73.4246V77.2906C34.0451 79.7691 35.6998 81.8674 37.9621 82.5416V85.1242C37.9621 87.6389 39.6656 89.7619 41.9789 90.4037V92.9584C41.9789 95.9797 44.4369 98.4377 47.4582 98.4377H52.5414C55.5629 98.4377 58.0209 95.9797 58.0209 92.9584V90.4039C60.3342 89.7623 62.0377 87.6393 62.0377 85.1244V82.5418C64.3 81.8674 65.9545 79.7691 65.9545 77.2908V73.4277C66.5576 63.2678 69.1887 58.7699 71.5107 54.8016C73.6475 51.1498 75.6658 47.7004 75.6658 41.0547C75.666 26.902 64.1524 15.3881 50 15.3881ZM52.5416 95.3125H47.4584C46.1604 95.3125 45.1041 94.2564 45.1041 92.9582V90.6035H54.8961V92.9584C54.8959 94.2564 53.8399 95.3125 52.5416 95.3125ZM56.5588 87.4785H43.4418C42.1436 87.4785 41.0871 86.4225 41.0871 85.1242V82.7697H58.9129V85.1242C58.9129 86.4223 57.8568 87.4785 56.5588 87.4785ZM60.4756 79.6447H39.5244C38.2264 79.6447 37.1701 78.5887 37.1701 77.2904V74.9355H62.8295V77.2904C62.8297 78.5887 61.7734 79.6447 60.4756 79.6447ZM68.8137 53.223C66.4264 57.3027 63.7354 61.9023 62.9348 71.8107H37.065C36.2643 61.9025 33.5732 57.3029 31.1861 53.223C29.1035 49.6641 27.4586 46.8529 27.4586 41.0543C27.4586 28.625 37.5705 18.5131 49.9998 18.5131C62.4291 18.5131 72.5408 28.625 72.5408 41.0543C72.541 46.8529 70.8961 49.6639 68.8137 53.223ZM48.4375 8.80273V3.125C48.4375 2.26211 49.1371 1.5625 50 1.5625C50.8629 1.5625 51.5625 2.26211 51.5625 3.125V8.80273C51.5625 9.66562 50.8629 10.3652 50 10.3652C49.1371 10.3652 48.4375 9.66562 48.4375 8.80273ZM27.6285 9.53828C27.1969 8.79102 27.4531 7.83535 28.2004 7.40391C28.9481 6.97207 29.9035 7.22871 30.3348 7.97578L33.1736 12.8928C33.6053 13.64 33.349 14.5957 32.6018 15.0271C32.3557 15.1693 32.0869 15.2367 31.8221 15.2367C31.2818 15.2367 30.7568 14.9564 30.4674 14.4553L27.6285 9.53828ZM19.865 27.7635C19.5758 28.2646 19.0504 28.5449 18.5104 28.5449C18.2453 28.5449 17.9768 28.4773 17.7307 28.3354L12.8137 25.4965C12.0664 25.065 11.8102 24.1094 12.2418 23.3621C12.6731 22.6148 13.6289 22.3586 14.3762 22.7902L19.2932 25.6291C20.0404 26.0607 20.2967 27.0162 19.865 27.7635ZM66.8264 12.8928L69.6652 7.97578C70.0967 7.22832 71.0522 6.97227 71.7996 7.40391C72.5469 7.83535 72.8031 8.79102 72.3715 9.53828L69.5326 14.4553C69.2434 14.9564 68.718 15.2367 68.1779 15.2367C67.9129 15.2367 67.6443 15.1691 67.3983 15.0271C66.651 14.5955 66.3947 13.64 66.8264 12.8928ZM87.1863 25.4967L82.2693 28.3354C82.0232 28.4775 81.7545 28.5449 81.4897 28.5449C80.9494 28.5449 80.4244 28.2646 80.135 27.7635C79.7033 27.0162 79.9596 26.0605 80.7068 25.6291L85.6238 22.7904C86.3717 22.3586 87.327 22.6152 87.7582 23.3623C88.1897 24.1096 87.9336 25.0652 87.1863 25.4967ZM62.3627 28.4961H37.6371C37.0674 28.4961 36.5426 28.8062 36.268 29.3057L30.0865 40.5424C29.7779 41.1033 29.843 41.7959 30.2504 42.2898L48.7947 64.7631C49.0918 65.1229 49.5336 65.3311 50 65.3311C50.4664 65.3311 50.9082 65.1229 51.2053 64.7631L69.7494 42.2898C70.1568 41.7959 70.2219 41.1033 69.9133 40.5424L63.7318 29.3057C63.457 28.8062 62.9324 28.4961 62.3627 28.4961ZM46.4615 39.733L50 33.3004L53.5385 39.733H46.4615ZM54.1309 42.858L50 57.8769L45.869 42.858H54.1309ZM52.6428 31.6211H59.7197L56.1813 38.0537L52.6428 31.6211ZM43.8186 38.0537L40.2799 31.6211H47.357L43.8186 38.0537ZM41.1756 39.733H34.0984L37.6371 33.3004L41.1756 39.733ZM42.6275 42.858L46.5561 57.1404L34.7705 42.858H42.6275ZM57.3723 42.858H65.2293L53.444 57.1404L57.3723 42.858ZM58.8242 39.733L62.3627 33.3004L65.9014 39.733H58.8242Z" fill="#F6871F"/>
</svg>
