<svg xmlns="http://www.w3.org/2000/svg" version="1.1" xmlns:xlink="http://www.w3.org/1999/xlink" width="512" height="512" x="0" y="0" viewBox="0 0 91 91" style="enable-background:new 0 0 512 512" xml:space="preserve" class=""><g><path d="M32.425 35.878c-5.696 9.675-1.021 17.418.54 19.559-1.909 3.512-3.38 7.373-3.894 11.43a1.687 1.687 0 0 0 3.348.424c1.823-14.4 17.722-26.842 17.882-26.966a1.689 1.689 0 0 0-2.062-2.672c-.463.357-7.85 6.134-13.363 14.587-1.471-2.523-3.502-7.925.457-14.65 2.465-4.19 6.304-4.856 10.75-5.628 3.263-.565 6.879-1.193 10.129-3.388 1.043 4.991 2.641 16.166-2.143 22.744-2.386 3.281-6.175 5.027-11.262 5.188a1.688 1.688 0 0 0 .053 3.373h.054c6.187-.195 10.859-2.41 13.89-6.582 7.232-9.958 2.259-27.461 2.044-28.202a1.687 1.687 0 0 0-2.807-.727c-2.994 2.962-6.656 3.598-10.535 4.27-4.829.837-9.823 1.703-13.081 7.24z" fill="#f6871f" opacity="1" data-original="#000000" class=""></path><path d="M30.796 78.617a1.69 1.69 0 0 0 2.214-.892 1.687 1.687 0 0 0-.892-2.213C18.82 69.846 10.927 56.375 12.476 41.988c1.772-16.455 15.551-28.753 31.677-29.123l-4.167 3.356a1.688 1.688 0 0 0 2.117 2.629l7.671-6.178a1.685 1.685 0 0 0 .256-2.373l-6.179-7.67a1.688 1.688 0 0 0-2.628 2.117l3.807 4.726c-18.202-.07-33.919 13.673-35.909 32.154-1.71 15.874 7.001 30.739 21.675 36.991zM57.414 15.323c13.293 5.497 21.5 19.337 19.959 33.658C75.599 65.434 61.814 77.723 45.695 78.1l4.166-3.354a1.688 1.688 0 0 0-2.117-2.629l-7.672 6.178a1.686 1.686 0 0 0-.256 2.373l6.18 7.67a1.684 1.684 0 0 0 2.373.256c.726-.586.84-1.648.255-2.373l-3.81-4.729c.045 0 .09.004.135.004 18.14-.002 33.792-13.719 35.779-32.154 1.7-15.8-7.356-31.072-22.024-37.138a1.688 1.688 0 0 0-1.29 3.119z" fill="#f6871f" opacity="1" data-original="#000000" class=""></path></g></svg>