<svg width="104" height="104" viewBox="0 0 104 104" fill="none" xmlns="http://www.w3.org/2000/svg">
<path d="M94.8594 15.4375H9.14062C4.11084 15.4375 0 19.5303 0 24.5781V79.4219C0 84.4716 4.11348 88.5625 9.14062 88.5625H94.8594C99.8892 88.5625 104 84.4697 104 79.4219V24.5781C104 19.529 99.8871 15.4375 94.8594 15.4375ZM93.4558 21.5312C90.5005 24.4963 55.7873 59.3227 54.3611 60.7535C53.17 61.9482 50.8306 61.9491 49.6389 60.7535L10.5442 21.5312H93.4558ZM6.09375 78.3016V25.6984L32.3101 52L6.09375 78.3016ZM10.5442 82.4688L36.6121 56.316L45.3231 65.0555C48.8928 68.6368 55.1086 68.6353 58.6771 65.0555L67.3881 56.3162L93.4558 82.4688H10.5442ZM97.9062 78.3016L71.6899 52L97.9062 25.6984V78.3016Z" fill="#F6871F"/>
</svg>
