<svg width="100" height="100" viewBox="0 0 100 100" fill="none" xmlns="http://www.w3.org/2000/svg">
<path d="M15.2 72.2218C14.8889 72.2218 14.5778 72.1774 14.2889 72.0885L3.64445 69.133C2.75556 68.8885 2.02223 68.3107 1.55556 67.4885C1.11112 66.6885 1.00001 65.7329 1.24445 64.8441L9.46667 36.3107C9.97779 34.5107 11.8889 33.4441 13.7111 33.9552L24.3556 36.9107C25.2445 37.1552 26 37.7329 26.4445 38.5552C26.8889 39.3774 27 40.3107 26.7556 41.1996L18.5333 69.7329C18.0889 71.2218 16.6889 72.2218 15.2 72.2218ZM14.8667 69.9552C15.5111 70.1329 16.1778 69.7552 16.3778 69.1107L24.6 40.5774C24.6889 40.2663 24.6445 39.9329 24.4889 39.6441C24.3333 39.3552 24.0667 39.1552 23.7556 39.0663L13.1111 36.0885C12.4667 35.9107 11.8 36.2885 11.6 36.9329L3.37779 65.4663C3.2889 65.7774 3.33334 66.1107 3.4889 66.3996C3.64445 66.6885 3.91112 66.8885 4.22223 66.9774L14.8667 69.9552Z" fill="#F6871F"/>
<path d="M16.6222 47.6666C16.2889 47.6666 15.9556 47.6222 15.6222 47.5333C14.6667 47.2666 13.8667 46.6444 13.3778 45.7778C12.8889 44.9111 12.7556 43.9111 13.0222 42.9555C13.5778 40.9778 15.6445 39.8222 17.6222 40.3555C19.6 40.8889 20.7556 42.9778 20.2222 44.9555C19.9556 45.9111 19.3333 46.7111 18.4667 47.2C17.8667 47.5111 17.2445 47.6666 16.6222 47.6666ZM16.6 42.4222C16.3333 42.4222 16.0889 42.4889 15.8667 42.6222C15.5111 42.8222 15.2667 43.1333 15.1556 43.5333C14.9333 44.3333 15.4 45.1555 16.2 45.3778C16.5778 45.4889 17 45.4444 17.3556 45.2444C17.7111 45.0444 17.9556 44.7333 18.0667 44.3333C18.2889 43.5333 17.8222 42.7111 17.0222 42.4889C16.8667 42.4444 16.7333 42.4222 16.6 42.4222Z" fill="#F6871F"/>
<path d="M84.8 72.2218C83.3111 72.2218 81.9111 71.2441 81.4889 69.7329L73.2667 41.1996C73.0222 40.3107 73.1111 39.3774 73.5778 38.5552C74.0444 37.7329 74.7778 37.1552 75.6667 36.9107L86.3111 33.9552C88.1333 33.4441 90.0222 34.5107 90.5556 36.3107L98.7778 64.8441C99.0222 65.7329 98.9333 66.6663 98.4667 67.4885C98.0222 68.2885 97.2667 68.8885 96.3778 69.133L85.7333 72.0885C85.4222 72.1774 85.1111 72.2218 84.8 72.2218ZM87.2222 36.0441C87.1111 36.0441 87 36.0663 86.8889 36.0885L76.2444 39.0441C75.9333 39.1329 75.6667 39.3329 75.5111 39.6218C75.3556 39.9107 75.3111 40.2441 75.4 40.5552L83.6222 69.0885C83.8 69.733 84.4889 70.1107 85.1333 69.933L95.7778 66.9774C96.0889 66.8885 96.3556 66.6885 96.5111 66.3996C96.6667 66.1107 96.7111 65.7774 96.6222 65.4663L88.4 36.9329C88.2444 36.3996 87.7333 36.0441 87.2222 36.0441Z" fill="#F6871F"/>
<path d="M83.3111 47.6665C81.6889 47.6665 80.1778 46.5777 79.7111 44.9332C79.4444 43.9777 79.5778 42.9777 80.0444 42.111C80.5333 41.2443 81.3333 40.6221 82.2889 40.3554C84.2667 39.7999 86.3333 40.9777 86.8889 42.9554C87.4444 44.9332 86.2667 46.9999 84.2889 47.5554C83.9778 47.6221 83.6444 47.6665 83.3111 47.6665ZM83.3111 42.4221C83.1778 42.4221 83.0444 42.4443 82.9111 42.4888C82.5333 42.5999 82.2 42.8443 82 43.1999C81.8 43.5554 81.7555 43.9554 81.8667 44.3332C81.9778 44.711 82.2222 45.0443 82.5778 45.2443C82.9333 45.4443 83.3333 45.4888 83.7111 45.3777C84.5111 45.1554 84.9778 44.3332 84.7555 43.5332C84.5778 42.8665 83.9778 42.4221 83.3111 42.4221Z" fill="#F6871F"/>
<path d="M71.6667 72.355C71.0667 72.355 70.5778 71.8884 70.5556 71.2884C70.5333 70.6661 71 70.155 71.6222 70.1328C71.6889 70.1328 77.1778 69.8884 81.4667 66.9106C81.9778 66.555 82.6667 66.6884 83.0222 67.1995C83.3778 67.7106 83.2445 68.3995 82.7333 68.755C77.8889 72.1106 71.9556 72.355 71.7111 72.355C71.6889 72.355 71.6889 72.355 71.6667 72.355Z" fill="#F6871F"/>
<path d="M21.5333 71.0665C21.2444 71.0665 20.9556 70.9554 20.7556 70.7332L17.4667 67.4443C17.0444 66.9999 17.0444 66.311 17.4667 65.8665C17.8889 65.4221 18.6 65.4221 19.0444 65.8665L22.3333 69.1554C22.7555 69.5999 22.7555 70.2888 22.3333 70.7332C22.1111 70.9554 21.8222 71.0665 21.5333 71.0665Z" fill="#F6871F"/>
<path d="M43.3555 91.0003C41.9111 91.0003 40.4444 90.4447 39.3555 89.3336L37.4667 87.4447C37.0444 87.0003 37.0444 86.3114 37.4667 85.867C37.8889 85.4225 38.6 85.4225 39.0444 85.867L40.9333 87.7559C42.2667 89.0892 44.4667 89.0892 45.8 87.7559C46.4444 87.1114 46.8 86.2447 46.8 85.3336C46.8 84.8892 46.7111 84.4448 46.5555 84.0448C46.3778 83.6225 46.1333 83.2448 45.8 82.9114C45.3778 82.467 45.3778 81.7781 45.8 81.3336C46.2222 80.8892 46.9333 80.8892 47.3778 81.3336L51.6 85.5559C52.9333 86.8892 55.1333 86.8892 56.4667 85.5559C57.1111 84.9114 57.4667 84.0447 57.4667 83.1114C57.4667 82.1781 57.1111 81.3336 56.4667 80.667C56.0222 80.2225 56.0222 79.5336 56.4667 79.0892C56.9111 78.6447 57.6 78.6447 58.0444 79.0892C59.1111 80.1559 59.7111 81.5781 59.7111 83.0892C59.7111 84.6003 59.1333 86.0225 58.0444 87.0892C55.8444 89.2892 52.2444 89.2892 50.0444 87.0892L49 86.0448C48.8444 87.267 48.2889 88.4225 47.3778 89.3114C46.2444 90.4447 44.8 91.0003 43.3555 91.0003Z" fill="#F6871F"/>
<path d="M62.2889 84.1776C60.8444 84.1776 59.4 83.622 58.2889 82.5109L47.9333 72.1554C47.5111 71.7109 47.5111 71.022 47.9333 70.5776C48.3556 70.1331 49.0667 70.1331 49.5111 70.5776L59.8667 80.9331C61.2 82.2665 63.4 82.2665 64.7333 80.9331C66.0667 79.5998 66.0667 77.3998 64.7333 76.0665L54.3778 65.7109C53.9333 65.2665 53.9333 64.5776 54.3778 64.1331C54.8222 63.6887 55.5111 63.6887 55.9556 64.1331L66.3111 74.4887C68.5111 76.6887 68.5111 80.2887 66.3111 82.4887C65.2 83.6443 63.7333 84.1776 62.2889 84.1776Z" fill="#F6871F"/>
<path d="M67.1778 76.1999C65.6666 76.1999 64.2444 75.6221 63.1778 74.5332C62.7333 74.0888 62.7333 73.3999 63.1778 72.9555C63.6222 72.511 64.3111 72.511 64.7555 72.9555C65.4 73.5999 66.2666 73.9555 67.2 73.9555C68.1333 73.9555 68.9778 73.5999 69.6444 72.9555C70.1555 72.4443 70.4889 71.7777 70.6 71.0666C70.6222 70.8888 70.6444 70.711 70.6444 70.511C70.6444 69.5999 70.2889 68.7332 69.6444 68.0666L53.1778 51.5999C51.9778 50.3999 50.2222 49.9555 48.6 50.3999C47.7555 50.6443 47.0222 51.0888 46.4222 51.7332L41.2666 57.3332C41.2444 57.3332 41.2444 57.3555 41.2444 57.3555C38.8222 59.7777 34.9111 59.7777 32.4889 57.3555C30.5555 55.4221 30.1111 52.4888 31.4 50.0666C33.0444 46.9777 35.8889 42.711 40.1111 40.0666C40.1333 40.0666 40.1333 40.0443 40.1555 40.0443C43.6222 37.8666 47.4222 37.1555 51.4444 37.8666C52.0444 37.9555 60.4222 39.2443 67 43.7332L74.1111 40.6666C74.6666 40.4221 75.3333 40.6888 75.5778 41.2443C75.8222 41.7999 75.5555 42.4666 75 42.711L67.3111 46.0221C66.9555 46.1777 66.5333 46.1332 66.2222 45.911C59.9333 41.3777 51.2 40.0666 51.1111 40.0666C51.0889 40.0666 51.0889 40.0666 51.0666 40.0666C47.5778 39.4221 44.2889 40.0666 41.3111 41.9555C41.2889 41.9555 41.2889 41.9777 41.2666 41.9777C37.4889 44.3777 34.8889 48.2666 33.3778 51.111C32.5555 52.6666 32.8444 54.5332 34.0666 55.7777C35.6 57.311 38.1111 57.3332 39.6666 55.7999L44.7778 50.2443C45.6444 49.311 46.7555 48.6221 47.9778 48.2666C50.3778 47.5999 52.9778 48.2666 54.7333 50.0221L71.2 66.4888C72.2666 67.5555 72.8666 68.9777 72.8666 70.4888C72.8666 70.7999 72.8444 71.111 72.8 71.3999C72.6222 72.5777 72.0666 73.6443 71.2222 74.511C70.1111 75.5999 68.6889 76.1999 67.1778 76.1999Z" fill="#F6871F"/>
<path d="M25.2667 43.5553C24.7555 43.5553 24.3111 43.1997 24.1778 42.6886C24.0444 42.0886 24.4222 41.4886 25.0222 41.3553C32.2444 39.7108 40.3778 39.9108 40.7333 39.933C41.3333 39.9553 41.8222 40.4441 41.8222 41.0441C41.8222 41.6664 41.3111 42.1775 40.6889 42.1553C40.3555 42.1553 32.4889 41.933 25.5333 43.533C25.4222 43.533 25.3555 43.5553 25.2667 43.5553Z" fill="#F6871F"/>
<path d="M24.1111 75.4886C23.0222 75.4886 22 75.0664 21.2222 74.2886C20.4444 73.5108 20.0222 72.4886 20.0222 71.3997C20.0222 70.3108 20.4444 69.2886 21.2222 68.5108L24.7333 64.9997C26.3111 63.422 28.9111 63.422 30.4889 64.9997C31.2667 65.7775 31.6889 66.7997 31.6889 67.8886C31.6889 68.9775 31.2667 69.9997 30.4889 70.7775C30.0667 71.222 29.3556 71.222 28.9111 70.7775C28.4889 70.3331 28.4889 69.6442 28.9111 69.1997C29.2667 68.8442 29.4444 68.3775 29.4444 67.8886C29.4444 67.3997 29.2444 66.9331 28.9111 66.5775C28.1778 65.8442 27.0222 65.8442 26.2889 66.5775L22.7778 70.0886C22.4222 70.4442 22.2444 70.9108 22.2444 71.3997C22.2444 71.8886 22.4444 72.3553 22.7778 72.7109C23.1333 73.0664 23.6 73.2442 24.0889 73.2442C24.5778 73.2442 25.0444 73.0442 25.4 72.7109C25.8222 72.2664 26.5333 72.2664 26.9778 72.7109C27.4 73.1553 27.4 73.8442 26.9778 74.2886C26.2222 75.0664 25.2 75.4886 24.1111 75.4886Z" fill="#F6871F"/>
<path d="M27.0667 80.9333C26.0222 80.9333 24.9778 80.5333 24.1778 79.7333C23.4 78.9555 22.9778 77.9333 22.9778 76.8444C22.9778 75.7555 23.4 74.7333 24.1778 73.9555L28.9333 69.1999C30.5111 67.6222 33.1111 67.6222 34.6889 69.1999C35.4667 69.9777 35.8889 70.9999 35.8889 72.0888C35.8889 73.1777 35.4667 74.1999 34.6889 74.9777C34.2667 75.4222 33.5556 75.4222 33.1111 74.9777C32.6889 74.5333 32.6889 73.8444 33.1111 73.3999C33.4667 73.0444 33.6444 72.5777 33.6444 72.0888C33.6444 71.5999 33.4444 71.1333 33.1111 70.7777C32.3778 70.0444 31.2 70.0444 30.4889 70.7777L25.7556 75.5555C25.4 75.911 25.2222 76.3777 25.2222 76.8666C25.2222 77.3555 25.4222 77.8222 25.7556 78.1777C26.4889 78.911 27.6444 78.911 28.3778 78.1777C28.8 77.7333 29.5111 77.7333 29.9556 78.1777C30.4 78.6222 30.3778 79.311 29.9556 79.7555C29.1556 80.5333 28.1111 80.9333 27.0667 80.9333Z" fill="#F6871F"/>
<path d="M29.8667 86.5112C28.7778 86.5112 27.7555 86.089 26.9778 85.3112C26.2 84.5335 25.7778 83.5112 25.7778 82.4224C25.7778 81.3335 26.2 80.3112 26.9778 79.5335L33.1111 73.4001C34.6889 71.8224 37.2889 71.8224 38.8667 73.4001C39.6444 74.1779 40.0667 75.2001 40.0667 76.289C40.0667 77.3779 39.6444 78.4001 38.8667 79.1779L32.7333 85.3112C31.9778 86.089 30.9555 86.5112 29.8667 86.5112ZM36.0222 74.4446C35.5556 74.4446 35.0667 74.6224 34.7111 74.9779L28.5555 81.1112C28.2 81.4668 28.0222 81.9335 28.0222 82.4224C28.0222 82.9112 28.2222 83.3779 28.5555 83.7335C28.9111 84.089 29.3778 84.2668 29.8667 84.2668C30.3555 84.2668 30.8222 84.0668 31.1778 83.7335L37.3111 77.6001C37.6667 77.2446 37.8444 76.7779 37.8444 76.289C37.8444 75.8001 37.6444 75.3335 37.3111 74.9779C36.9555 74.6224 36.4889 74.4446 36.0222 74.4446Z" fill="#F6871F"/>
<path d="M35.8444 88.9112C34.7556 88.9112 33.7333 88.489 32.9556 87.7112C32.1778 86.9334 31.7556 85.9112 31.7556 84.8223C31.7556 83.7334 32.1778 82.7112 32.9556 81.9334C33.3778 81.489 34.0889 81.489 34.5333 81.9334C34.9556 82.3779 34.9556 83.0668 34.5333 83.5112C34.1778 83.8668 34 84.3334 34 84.8223C34 85.3112 34.2 85.7779 34.5333 86.1334C34.8889 86.489 35.3556 86.6668 35.8444 86.6668C36.3333 86.6668 36.8 86.4668 37.1556 86.1334L41.5111 81.7779C42.2444 81.0445 42.2444 79.889 41.5111 79.1556C40.7778 78.4223 39.6222 78.4223 38.8889 79.1556C38.4667 79.6001 37.7556 79.6001 37.3111 79.1556C36.8889 78.7112 36.8889 78.0223 37.3111 77.5779C38.8889 76.0001 41.4889 76.0001 43.0667 77.5779C44.6444 79.1556 44.6444 81.7556 43.0667 83.3334L38.7111 87.689C37.9556 88.489 36.9333 88.9112 35.8444 88.9112Z" fill="#F6871F"/>
<path d="M61.2445 43.0222C61.0222 43.0222 60.7778 42.9556 60.5778 42.8C60.0889 42.4222 60 41.7333 60.3556 41.2444C63.5556 37.0444 65.2222 31.9778 65.2222 26.6667V17.2222L50 11.3111L34.7778 17.2222V26.6667C34.7778 31.6222 36.2445 36.3778 39.0445 40.4C39.4 40.9111 39.2667 41.6 38.7556 41.9556C38.2445 42.3111 37.5556 42.1778 37.2 41.6667C34.1556 37.2667 32.5334 32.0667 32.5334 26.6667V16.4667C32.5334 16 32.8222 15.6 33.2445 15.4222L49.5778 9.06667C49.8445 8.97778 50.1334 8.97778 50.3778 9.06667L66.7111 15.4222C67.1334 15.6 67.4222 16 67.4222 16.4667V26.6667C67.4222 32.4889 65.5778 37.9778 62.0889 42.6C61.9111 42.8889 61.5778 43.0222 61.2445 43.0222Z" fill="#F6871F"/>
<path d="M55.5333 41.0442C55.2667 41.0442 55 40.9553 54.7778 40.7553C54.3333 40.3331 54.2889 39.6442 54.7111 39.1775C57.8445 35.7553 59.5778 31.3109 59.5778 26.6664V21.1109L50 17.3775L40.4222 21.1109V26.6664C40.4222 31.0886 42 35.3775 44.8889 38.7331C45.2889 39.1997 45.2445 39.9109 44.7778 40.3109C44.3111 40.7109 43.6 40.6664 43.2 40.1997C39.9778 36.4442 38.2 31.6442 38.2 26.6886V20.3331C38.2 19.8664 38.4889 19.4664 38.9111 19.2886L49.6 15.1331C49.8667 15.0442 50.1556 15.0442 50.4 15.1331L61.0889 19.2886C61.5111 19.4664 61.8 19.8664 61.8 20.3331V26.6664C61.8 31.8664 59.8667 36.8442 56.3556 40.6886C56.1111 40.9331 55.8222 41.0442 55.5333 41.0442Z" fill="#F6871F"/>
<path d="M47.8222 33.933C47.5333 33.933 47.2444 33.8219 47.0444 33.5996L43.9556 30.5107C43.5333 30.0885 43.5333 29.3774 43.9556 28.933C44.3778 28.5107 45.0889 28.5107 45.5333 28.933L47.8444 31.2441L54.5111 24.5774C54.9556 24.1552 55.6444 24.1552 56.0889 24.5774C56.5333 24.9996 56.5333 25.7107 56.0889 26.1552L48.6444 33.5996C48.4 33.8219 48.1111 33.933 47.8222 33.933Z" fill="#F6871F"/>
</svg>
