<svg width="406" height="100" viewBox="0 0 406 100" fill="none" xmlns="http://www.w3.org/2000/svg">
<path d="M115.83 11.7119H130.502V25.6115L145.045 11.7119H158.301L143.372 27.9281L161.647 49.8072H145.56L130.502 35.1353V49.8072H115.83V11.7119Z" fill="#003A68"/>
<path d="M209.652 11.7119H195.238V49.8072H209.652V11.7119Z" fill="#003A68"/>
<path d="M244.788 11.7119V30.7595L229.858 11.7119H216.345V49.8072H229.858V31.5317L245.689 49.8072H258.816V11.7119H244.788Z" fill="#003A68"/>
<path d="M175.547 40.7981V11.7119H161.905V49.8072H174.646H175.547H192.149V40.7981H175.547Z" fill="#003A68"/>
<path d="M344.916 40.2833H326.641V33.3335H342.342V25.3541H327.156V20.7209H343.501V11.7119H312.741V49.8072H344.916V40.2833Z" fill="#003A68"/>
<path d="M287.387 25.7398V32.4322H295.367V40.1542C294.595 40.4116 293.179 40.669 290.348 40.669C284.942 40.669 278.507 39.7681 278.507 30.8878C278.507 22.0075 285.843 19.8196 291.506 19.8196C297.169 19.8196 301.03 21.7501 301.03 21.7501L305.663 13.642C305.663 13.642 297.812 10.8105 288.288 10.8105C278.636 10.8105 262.548 13.7707 262.548 29.8582C262.548 46.8466 275.676 50.3215 286.358 50.3215C299.485 50.3215 308.237 47.7475 308.237 47.7475V25.7398H287.387Z" fill="#003A68"/>
<path d="M394.08 49.6785L378.25 33.0761C378.25 33.0761 387.902 31.403 387.902 22.7801C387.902 20.0774 386.873 11.7119 372.201 11.7119H349.678V49.8072H364.093V34.4918L378.378 49.6785H394.08ZM368.597 27.542H363.192V20.5922H368.597C369.627 20.5922 371.943 21.107 371.943 23.8097C371.943 27.4133 368.597 27.542 368.597 27.542Z" fill="#003A68"/>
<path d="M385.714 34.6204C385.714 36.8083 387.516 38.4814 389.575 38.4814C391.763 38.4814 393.436 36.6796 393.436 34.6204C393.436 32.4325 391.635 30.7594 389.575 30.7594C387.516 30.6307 385.714 32.4325 385.714 34.6204ZM386.873 34.6204C386.873 33.076 388.16 31.789 389.704 31.789C391.248 31.789 392.535 33.076 392.535 34.6204C392.535 36.1648 391.248 37.4518 389.704 37.4518C388.031 37.3231 386.873 36.1648 386.873 34.6204Z" fill="#003A68"/>
<path d="M391.12 36.4223L390.09 34.7492C390.348 34.6205 390.862 34.1057 390.862 33.5909C390.862 32.9474 390.348 32.5613 389.961 32.4326H388.288V36.4223H388.932C388.932 36.4223 388.932 35.6501 388.932 34.8779C389.061 34.8779 389.189 34.8779 389.447 34.8779L390.476 36.4223H391.12ZM388.932 33.0761C389.318 33.0761 389.833 33.0761 389.833 33.0761C389.961 33.0761 390.219 33.2048 390.219 33.5909C390.219 33.8483 389.961 34.2344 389.575 34.2344C389.447 34.2344 389.061 34.2344 388.803 34.2344C388.932 33.7196 388.932 33.3335 388.932 33.0761Z" fill="#003A68"/>
<path d="M97.8121 49.8068L105.148 41.9561C104.762 40.0256 104.376 38.0951 103.861 36.2933L91.1197 49.8068L99.8713 59.2019C99.3565 61.2611 98.8417 63.3203 98.0695 65.2508L83.6551 49.8068L101.802 30.6305C101.158 29.0861 100.257 27.5417 99.4853 26.126C98.5844 24.4529 97.426 22.9085 96.3964 21.4928C95.3668 20.2058 94.3372 18.9188 93.1789 17.7605L62.9344 49.9355L89.8327 78.5069C88.5457 79.7939 87.2587 81.0809 85.843 82.2392L55.3411 49.8068L89.0605 13.8995C87.7735 12.8699 86.4865 11.8403 85.1995 10.9394C83.6551 9.90977 81.982 8.88017 80.3089 8.10797C78.7645 7.33577 77.2201 6.69226 75.6757 6.04876L34.4917 49.8068L72.0721 89.7038C67.9537 90.9908 63.5779 91.763 59.0734 91.763C35.9074 91.763 17.1172 72.9728 17.1172 49.8068C17.1172 26.6408 35.9074 7.85057 59.0734 7.85057C61.39 7.85057 63.7066 8.10797 66.0232 8.36537L69.8842 4.24696C66.4093 3.47476 62.8057 2.95996 59.0734 2.95996C33.2047 2.95996 12.2266 23.9381 12.2266 49.8068C12.2266 75.6755 33.2047 96.5249 59.0734 96.5249C64.9936 96.5249 70.5277 95.4953 75.6757 93.4361C77.2201 92.7926 78.8932 92.1491 80.3089 91.3769L41.1841 49.8068L76.834 11.7116C78.5071 12.4838 80.1802 13.3847 81.7246 14.4143L48.6487 49.8068L85.1995 88.6742C86.4865 87.7733 87.9022 86.7437 89.0605 85.7141C90.4762 84.5558 91.7632 83.2688 93.0502 81.9818C94.2085 80.8235 95.2381 79.5365 96.2677 78.2495L69.4981 49.8068L92.9215 24.9677C94.0798 26.5121 95.1094 28.0565 96.0103 29.7296L76.9627 49.8068L99.3565 73.6163C100.257 72.2006 101.03 70.6562 101.673 69.1118L103.861 63.449C104.376 61.6472 104.891 59.7167 105.148 57.7862L97.8121 49.8068Z" fill="#003A68"/>
<path d="M120.978 65.1214H124.582V66.9232H120.978V78.7636C120.978 80.1793 121.236 80.9515 122.78 81.0802C123.423 81.0802 124.067 81.0802 124.582 80.9515V82.7534C123.938 82.7534 123.295 82.8821 122.651 82.8821C119.82 82.8821 118.79 81.9811 118.79 78.8923V66.9232H115.701V65.1214H118.79V59.8447H120.978V65.1214Z" fill="#0069B4"/>
<path d="M127.671 65.1217H129.601V69.2401H129.73C130.759 66.4087 133.205 64.7356 136.422 64.8643V67.0522C132.561 66.9235 129.858 69.6262 129.858 73.3586V82.7537H127.671V65.1217Z" fill="#0069B4"/>
<path d="M152.767 82.754H150.837V79.5365H150.708C149.55 81.8531 147.233 83.2688 144.659 83.2688C140.154 83.2688 138.481 80.6948 138.481 76.5764V65.1221H140.669V76.5764C140.798 79.7939 141.956 81.467 145.431 81.467C149.163 81.467 150.708 77.9921 150.708 74.3885V65.1221H152.896V82.754H152.767Z" fill="#0069B4"/>
<path d="M167.439 70.27C167.31 67.5673 165.251 66.409 162.806 66.409C160.875 66.409 158.687 67.1812 158.687 69.4978C158.687 71.4283 160.875 72.0718 162.291 72.4579L165.122 73.1014C167.568 73.4875 170.142 74.9032 170.142 77.992C170.142 81.853 166.409 83.2687 163.063 83.2687C158.945 83.2687 156.242 81.3382 155.856 77.0911H158.044C158.172 80.0512 160.36 81.4669 163.192 81.4669C165.251 81.4669 167.954 80.566 167.954 78.1207C167.954 76.0615 166.023 75.418 164.093 74.9032L161.261 74.2597C158.43 73.4875 156.371 72.4579 156.371 69.4978C156.371 65.8942 159.846 64.4785 163.063 64.4785C166.667 64.4785 169.369 66.2803 169.498 70.1413H167.439V70.27Z" fill="#0069B4"/>
<path d="M176.705 65.1214H180.309V66.9232H176.705V78.7636C176.705 80.1793 176.963 80.9515 178.507 81.0802C179.151 81.0802 179.794 81.0802 180.309 80.9515V82.7534C179.665 82.7534 179.022 82.8821 178.378 82.8821C175.547 82.8821 174.517 81.9811 174.517 78.8923V66.9232H171.429V65.1214H174.517V59.8447H176.705V65.1214Z" fill="#0069B4"/>
<path d="M184.685 74.5173C184.685 77.6061 186.358 81.4671 190.476 81.4671C193.565 81.4671 195.367 79.6653 196.01 76.9626H198.198C197.297 80.9523 194.981 83.2689 190.476 83.2689C184.813 83.2689 182.497 79.0218 182.497 74.0025C182.497 69.3693 184.813 64.6074 190.476 64.6074C196.139 64.6074 198.456 69.6267 198.198 74.5173H184.685ZM196.01 72.7155C195.882 69.498 193.822 66.4092 190.348 66.4092C186.744 66.4092 184.942 69.498 184.556 72.7155H196.01Z" fill="#0069B4"/>
<path d="M216.602 82.7538H214.672V79.4076H214.543C213.642 81.7242 210.811 83.2686 208.237 83.2686C202.831 83.2686 200.257 79.0215 200.257 74.0022C200.257 68.9829 202.831 64.6071 208.237 64.6071C210.811 64.6071 213.514 65.8941 214.414 68.4681H214.543V58.3008H216.731V82.7538H216.602ZM208.366 81.4668C212.87 81.4668 214.543 77.6058 214.543 74.0022C214.543 70.3986 212.87 66.5376 208.366 66.5376C204.247 66.5376 202.574 70.3986 202.574 74.0022C202.574 77.6058 204.247 81.4668 208.366 81.4668Z" fill="#0069B4"/>
<path d="M222.008 82.754V79.1504H224.839V82.754H222.008Z" fill="#0069B4"/>
<path d="M237.967 65.1221H240.283L244.788 80.18H244.916L249.163 65.1221H251.609L255.856 80.18H255.985L260.489 65.1221H262.806L257.143 82.754H254.826L250.322 67.9535L246.075 82.754H243.758L237.967 65.1221Z" fill="#0069B4"/>
<path d="M280.824 73.8736C280.824 78.8929 277.864 83.14 272.458 83.14C267.053 83.14 264.093 78.8929 264.093 73.8736C264.093 68.8543 267.053 64.4785 272.458 64.4785C277.864 64.6072 280.824 68.8543 280.824 73.8736ZM266.409 73.8736C266.409 77.6059 268.468 81.3382 272.587 81.3382C276.705 81.3382 278.764 77.6059 278.764 73.8736C278.764 70.1413 276.705 66.409 272.587 66.409C268.468 66.409 266.409 70.27 266.409 73.8736Z" fill="#0069B4"/>
<path d="M284.041 65.1217H285.972V69.2401H286.1C287.13 66.4087 289.575 64.7356 292.793 64.8643V67.0522C288.932 66.9235 286.229 69.6262 286.229 73.3586V82.7537H284.041V65.1217Z" fill="#0069B4"/>
<path d="M294.852 58.3008H297.04V82.7538H294.852V58.3008Z" fill="#0069B4"/>
<path d="M316.731 82.7538H314.672V79.4076C313.771 81.7242 310.94 83.2686 308.366 83.2686C302.96 83.2686 300.386 79.0215 300.386 74.0022C300.386 68.9829 302.96 64.6071 308.366 64.6071C310.94 64.6071 313.642 65.8941 314.543 68.4681H314.672V58.3008H316.86V82.7538H316.731ZM308.366 81.4668C312.87 81.4668 314.543 77.6058 314.543 74.0022C314.543 70.3986 312.87 66.5376 308.366 66.5376C304.247 66.5376 302.574 70.3986 302.574 74.0022C302.574 77.6058 304.247 81.4668 308.366 81.4668Z" fill="#0069B4"/>
<path d="M319.048 65.1221H321.364L325.869 80.18H325.997L330.245 65.1221H332.69L336.937 80.18H337.066L341.57 65.1221H343.887L338.224 82.754H335.907L331.403 67.9535L327.156 82.754H324.839L319.048 65.1221Z" fill="#0069B4"/>
<path d="M346.203 58.3008H348.391V61.7757H346.203V58.3008ZM346.203 65.1219H348.391V82.7538H346.203V65.1219Z" fill="#0069B4"/>
<path d="M367.954 82.7538H366.023V79.4076H365.894C364.994 81.7242 362.162 83.2686 359.588 83.2686C354.183 83.2686 351.609 79.0215 351.609 74.0022C351.609 68.9829 354.183 64.6071 359.588 64.6071C362.162 64.6071 364.865 65.8941 365.766 68.4681H365.894V58.3008H368.082V82.7538H367.954ZM359.588 81.4668C364.093 81.4668 365.766 77.6058 365.766 74.0022C365.766 70.3986 364.093 66.5376 359.588 66.5376C355.47 66.5376 353.797 70.3986 353.797 74.0022C353.797 77.6058 355.47 81.4668 359.588 81.4668Z" fill="#0069B4"/>
<path d="M373.359 74.5173C373.359 77.6061 375.032 81.4671 379.151 81.4671C382.239 81.4671 384.041 79.6653 384.685 76.9626H386.873C385.972 80.9523 383.655 83.2689 379.151 83.2689C373.488 83.2689 371.171 79.0218 371.171 74.0025C371.171 69.3693 373.488 64.6074 379.151 64.6074C384.813 64.6074 387.13 69.6267 386.873 74.5173H373.359ZM384.813 72.7155C384.685 69.498 382.625 66.4092 379.151 66.4092C375.547 66.4092 373.745 69.498 373.359 72.7155H384.813Z" fill="#0069B4"/>
<path d="M391.12 82.754V79.1504H393.951V82.754H391.12Z" fill="#0069B4"/>
</svg>
