<svg width="446" height="100" viewBox="0 0 446 100" fill="none" xmlns="http://www.w3.org/2000/svg">
<g clip-path="url(#clip0_207_228)">
<path d="M134.691 83.7064H140.394C141.487 83.6351 142.584 83.789 143.616 84.1584C144.647 84.5279 145.592 85.1051 146.392 85.8544C147.192 86.6037 147.829 87.5091 148.265 88.5146C148.701 89.5202 148.926 90.6044 148.926 91.7003C148.926 92.7962 148.701 93.8805 148.265 94.886C147.829 95.8915 147.192 96.7969 146.392 97.5462C145.592 98.2955 144.647 98.8727 143.616 99.2422C142.584 99.6117 141.487 99.7655 140.394 99.6942H134.691V83.7064ZM140.394 97.5897C141.879 97.4769 143.266 96.8074 144.278 95.7154C145.29 94.6234 145.853 93.1893 145.853 91.7003C145.853 90.2113 145.29 88.7773 144.278 87.6852C143.266 86.5932 141.879 85.9238 140.394 85.811H136.999V97.5897H140.394Z" fill="#CC122D"/>
<path d="M160.693 83.4347C162.346 83.3669 163.982 83.7962 165.39 84.6671C166.797 85.538 167.912 86.8107 168.589 88.3209C169.266 89.8312 169.476 91.5097 169.19 93.14C168.904 94.7703 168.136 96.2776 166.986 97.4675C165.835 98.6573 164.355 99.4752 162.735 99.8156C161.115 100.156 159.431 100.003 157.898 99.377C156.366 98.7508 155.057 97.68 154.139 96.3025C153.221 94.9251 152.737 93.3043 152.75 91.6492C152.698 90.5799 152.867 89.5114 153.244 88.5097C153.622 87.5079 154.201 86.5941 154.945 85.8245C155.689 85.0549 156.583 84.4458 157.571 84.0348C158.56 83.6238 159.622 83.4196 160.693 83.4347ZM160.693 85.5732C159.915 85.5704 159.146 85.7294 158.433 86.0401C157.721 86.3508 157.081 86.8064 156.554 87.3779C156.027 87.9494 155.625 88.6243 155.373 89.3597C155.122 90.095 155.026 90.8747 155.092 91.6492C155.031 92.4237 155.132 93.2022 155.387 93.936C155.642 94.6697 156.046 95.3428 156.573 95.913C157.101 96.4832 157.741 96.9381 158.453 97.2492C159.164 97.5604 159.933 97.721 160.709 97.721C161.486 97.721 162.255 97.5604 162.966 97.2492C163.678 96.9381 164.318 96.4832 164.845 95.913C165.373 95.3428 165.777 94.6697 166.032 93.936C166.287 93.2022 166.388 92.4237 166.327 91.6492C166.388 90.873 166.288 90.0926 166.032 89.3571C165.776 88.6217 165.371 87.9473 164.841 87.3764C164.312 86.8055 163.67 86.3505 162.956 86.0401C162.242 85.7298 161.471 85.5708 160.693 85.5732Z" fill="#CC122D"/>
<path d="M181.806 87.373L178.411 99.6948H175.866L171.283 83.707H173.965L177.359 96.538L180.754 83.707H182.722L186.117 96.538L189.511 83.707H192.193L187.61 99.6948H185.064L181.806 87.373Z" fill="#CC122D"/>
<path d="M198.405 87.4409V99.6948H195.995V83.707H198.473L207.06 95.6894V83.707H209.471V99.6948H207.128L198.405 87.4409Z" fill="#CC122D"/>
<path d="M226.069 92.5665H217.244V99.6948H214.868V83.707H217.244V90.4959H226.069V83.707H228.479V99.6948H226.069V92.5665Z" fill="#CC122D"/>
<path d="M241.005 83.4353C242.657 83.3744 244.29 83.8095 245.694 84.6848C247.097 85.5601 248.206 86.8354 248.878 88.3464C249.55 89.8575 249.754 91.5352 249.464 93.1633C249.175 94.7915 248.404 96.2957 247.252 97.4821C246.1 98.6685 244.619 99.4829 243 99.8203C241.381 100.158 239.698 100.003 238.168 99.3754C236.638 98.748 235.33 97.6769 234.414 96.3C233.498 94.9231 233.015 93.3036 233.028 91.6498C232.982 90.5788 233.154 89.5097 233.536 88.5078C233.917 87.5059 234.499 86.5925 235.246 85.8234C235.993 85.0544 236.889 84.4459 237.879 84.0352C238.869 83.6246 239.933 83.4205 241.005 83.4353ZM241.005 85.5738C240.236 85.585 239.478 85.7543 238.778 86.0712C238.077 86.3881 237.45 86.8458 236.934 87.4158C236.418 87.9857 236.025 88.6558 235.779 89.3842C235.534 90.1127 235.44 90.8839 235.506 91.6498C235.446 92.4197 235.545 93.1937 235.799 93.9232C236.052 94.6527 236.454 95.3219 236.978 95.8888C237.502 96.4556 238.138 96.908 238.846 97.2173C239.554 97.5267 240.317 97.6864 241.09 97.6864C241.862 97.6864 242.626 97.5267 243.333 97.2173C244.041 96.908 244.677 96.4556 245.201 95.8888C245.726 95.3219 246.127 94.6527 246.38 93.9232C246.634 93.1937 246.734 92.4197 246.673 91.6498C246.735 90.8708 246.633 90.0875 246.375 89.3497C246.118 88.6119 245.709 87.9359 245.176 87.3645C244.643 86.793 243.997 86.3388 243.279 86.0305C242.561 85.7222 241.786 85.5667 241.005 85.5738Z" fill="#CC122D"/>
<path d="M253.734 83.707H256.144V97.5903H263.408V99.6948H253.734V83.707Z" fill="#CC122D"/>
<path d="M267.753 83.707H278.344V85.8116H270.129V90.4959H278.344V92.6004H270.129V97.5903H278.344V99.6948H267.753V83.707Z" fill="#CC122D"/>
<path d="M291.48 95.6211C292.115 96.3244 292.89 96.8871 293.755 97.2729C294.62 97.6587 295.556 97.8592 296.504 97.8615C299.084 97.8615 299.898 96.5376 299.898 95.3835C299.898 93.7203 298.065 93.245 296.029 92.7019C293.992 92.1588 290.496 91.2763 290.496 88.0176C290.496 85.4039 292.838 83.4691 296.164 83.4691C297.239 83.42 298.313 83.5936 299.318 83.9791C300.322 84.3647 301.237 84.9538 302.003 85.7094L300.577 87.4745C299.978 86.8617 299.259 86.3795 298.464 86.0582C297.67 85.7369 296.817 85.5835 295.961 85.6076C294.196 85.6076 292.974 86.5241 292.974 87.8479C292.974 89.1717 294.705 89.7488 296.673 90.2579C299.287 90.9368 302.342 91.7854 302.342 95.1799C302.342 97.6578 300.611 100 296.3 100C295.127 100.054 293.955 99.8543 292.866 99.415C291.776 98.9757 290.794 98.3069 289.986 97.4541L291.48 95.6211Z" fill="#CC122D"/>
<path d="M306.925 83.707H313.714C315.019 83.707 316.271 84.2256 317.194 85.1486C318.117 86.0717 318.635 87.3236 318.635 88.629C318.635 89.9343 318.117 91.1863 317.194 92.1093C316.271 93.0323 315.019 93.5509 313.714 93.5509H309.301V99.6948H306.925V83.707ZM313.34 85.8116H309.301V91.4463H313.34C314.087 91.4463 314.804 91.1495 315.332 90.6212C315.861 90.0928 316.158 89.3762 316.158 88.629C316.158 87.8817 315.861 87.1651 315.332 86.6368C314.804 86.1084 314.087 85.8116 313.34 85.8116Z" fill="#CC122D"/>
<path d="M322.946 83.707H333.673V85.8116H325.356V90.4959H333.503V92.6004H325.356V97.5903H333.673V99.6948H322.946V83.707Z" fill="#CC122D"/>
<path d="M337.712 91.6495C337.68 90.5588 337.869 89.4729 338.27 88.4578C338.67 87.4428 339.273 86.5198 340.041 85.745C340.81 84.9702 341.728 84.3599 342.74 83.9511C343.751 83.5423 344.836 83.3436 345.927 83.3671C347.19 83.3258 348.441 83.6178 349.555 84.2137C350.67 84.8095 351.607 85.6883 352.274 86.7616L350.238 87.8478C349.777 87.1237 349.139 86.5287 348.385 86.119C347.631 85.7092 346.785 85.4982 345.927 85.5056C344.297 85.5056 342.734 86.1529 341.582 87.3051C340.43 88.4573 339.783 90.0201 339.783 91.6495C339.783 93.279 340.43 94.8417 341.582 95.994C342.734 97.1462 344.297 97.7935 345.927 97.7935C346.785 97.8009 347.631 97.5898 348.385 97.1801C349.139 96.7704 349.777 96.1754 350.238 95.4513L352.274 96.5375C351.605 97.6084 350.667 98.4853 349.553 99.0808C348.439 99.6764 347.189 99.9698 345.927 99.932C344.836 99.9555 343.751 99.7568 342.74 99.348C341.728 98.9392 340.81 98.3289 340.041 97.5541C339.273 96.7793 338.67 95.8563 338.27 94.8413C337.869 93.8262 337.68 92.7403 337.712 91.6495Z" fill="#CC122D"/>
<path d="M356.416 83.707H358.826V99.6948H356.416V83.707Z" fill="#CC122D"/>
<path d="M374.168 96.4019H366.327L365.037 99.7964H362.39L368.737 83.8086H371.758L378.106 99.7964H375.458L374.168 96.4019ZM367.04 94.2634H373.388L369.993 85.8113L367.04 94.2634Z" fill="#CC122D"/>
<path d="M381.738 83.707H384.148V97.5903H391.412V99.6948H381.738V83.707Z" fill="#CC122D"/>
<path d="M395.757 83.707H398.133V99.6948H395.757V83.707Z" fill="#CC122D"/>
<path d="M403.938 95.6211C404.572 96.3244 405.347 96.8871 406.212 97.2729C407.078 97.6587 408.014 97.8592 408.961 97.8615C411.575 97.8615 412.356 96.5376 412.356 95.3835C412.356 93.7203 410.557 93.245 408.52 92.7019C405.94 92.023 402.987 91.2763 402.987 88.0176C402.987 85.4039 405.295 83.4691 408.622 83.4691C409.697 83.42 410.771 83.5936 411.775 83.9791C412.78 84.3647 413.694 84.9538 414.46 85.7094L413.069 87.4745C412.467 86.865 411.747 86.385 410.953 86.0639C410.16 85.7428 409.308 85.5875 408.452 85.6076C406.653 85.6076 405.431 86.5241 405.431 87.8479C405.431 89.1717 407.162 89.7488 409.165 90.2579C411.779 90.9368 414.8 91.7854 414.8 95.1799C414.8 97.6578 413.103 100 408.758 100C407.589 100.058 406.421 99.8602 405.337 99.4205C404.252 98.9808 403.277 98.3097 402.478 97.4541L403.938 95.6211Z" fill="#CC122D"/>
<path d="M422.98 85.8116H418.024V83.707H430.346V85.8116H425.39V99.6948H422.98V85.8116Z" fill="#CC122D"/>
<path d="M434.793 95.6216C435.432 96.3291 436.212 96.8943 437.083 97.2803C437.955 97.6663 438.898 97.8644 439.851 97.8619C442.43 97.8619 443.245 96.5381 443.245 95.384C443.245 93.7207 441.412 93.2455 439.375 92.7024C436.796 92.0235 433.843 91.2767 433.843 88.0181C433.843 85.4044 436.151 83.4695 439.511 83.4695C440.581 83.4189 441.65 83.592 442.65 83.9778C443.649 84.3635 444.557 84.9534 445.316 85.7099L443.924 87.475C443.325 86.8622 442.606 86.38 441.811 86.0587C441.017 85.7374 440.164 85.5839 439.308 85.608C437.542 85.608 436.32 86.5245 436.32 87.8484C436.32 89.1722 438.052 89.7492 440.02 90.2584C442.634 90.9373 445.689 91.7859 445.689 95.1803C445.689 97.6583 443.958 100 439.647 100C438.473 100.057 437.301 99.858 436.212 99.4186C435.122 98.9792 434.14 98.3092 433.333 97.4546L434.793 95.6216Z" fill="#CC122D"/>
<path d="M8.58792 25.4578V61.0993H0V12.1855H8.79158L33.9443 46.8427V12.1855H42.5322V61.0993H33.9443L8.58792 25.4578Z" fill="black"/>
<path d="M152.546 42.8034H144.06V61.0994H135.472V12.1856H156.959C159.039 12.0268 161.13 12.3087 163.095 13.0131C165.059 13.7174 166.852 14.8283 168.358 16.2732C169.864 17.718 171.048 19.4643 171.833 21.3979C172.617 23.3315 172.985 25.409 172.912 27.4945C173.145 30.9055 172.083 34.2788 169.937 36.9406C167.791 39.6023 164.72 41.3566 161.337 41.853L173.286 61.0994H163.374L152.546 42.8034ZM155.94 19.7213H144.06V35.2678H155.771C156.852 35.369 157.943 35.2433 158.974 34.8986C160.004 34.554 160.952 33.9981 161.755 33.2664C162.558 32.5348 163.2 31.6435 163.639 30.6496C164.078 29.6557 164.305 28.5811 164.305 27.4945C164.305 26.4079 164.078 25.3333 163.639 24.3394C163.2 23.3456 162.558 22.4543 161.755 21.7226C160.952 20.9909 160.004 20.435 158.974 20.0904C157.943 19.7458 156.852 19.6201 155.771 19.7213H155.94Z" fill="black"/>
<path d="M192.43 19.7212H177.631V12.1855H215.818V19.7212H200.984V61.0993H192.43V19.7212Z" fill="black"/>
<path d="M255.974 39.7483H230.55V61.0993H221.962V12.1855H230.55V32.1788H255.974V12.1855H264.562V61.0993H255.974V39.7483Z" fill="black"/>
<path d="M276.578 47.5219C278.539 49.6387 280.911 51.3328 283.549 52.5002C286.187 53.6676 289.036 54.2837 291.921 54.3108C298.948 54.3108 301.731 50.9163 301.731 47.5219C301.731 43.1091 296.538 41.7853 290.597 40.2578C282.587 38.289 273.218 35.9469 273.218 25.5939C273.218 17.549 280.312 11.3033 291.039 11.3033C294.386 11.1666 297.727 11.6963 300.868 12.8618C304.009 14.0272 306.887 15.8051 309.335 18.0922L304.582 24.6434C300.786 20.9891 295.696 18.9875 290.428 19.0765C285.37 19.0765 282.145 21.4866 282.145 25.1526C282.145 28.8186 287.135 30.2103 292.94 31.6699C300.984 33.7405 310.591 36.2184 310.591 46.843C310.591 54.9896 304.854 61.9482 291.684 61.9482C288.023 62.1409 284.363 61.5603 280.941 60.2444C277.52 58.9285 274.414 56.9067 271.826 54.3108L276.578 47.5219Z" fill="black"/>
<path d="M329.803 19.7212H315.003V12.1855H353.191V19.7212H338.357V61.0993H329.803V19.7212Z" fill="black"/>
<path d="M385.438 51.697H362.288L358.69 61.0996H349.287L368.5 12.2197H379.192L398.405 61.0996H389.036L385.438 51.697ZM364.698 44.1274H383.028L373.863 19.4499L364.698 44.1274Z" fill="black"/>
<path d="M420.91 42.8041H412.39V61.1001H403.836V12.1863H425.289C427.372 12.0224 429.467 12.3006 431.435 13.0027C433.403 13.7048 435.201 14.8149 436.711 16.2603C438.22 17.7057 439.407 19.4537 440.194 21.3899C440.981 23.326 441.35 25.4066 441.276 27.4952C441.509 30.9062 440.446 34.2795 438.301 36.9413C436.155 39.603 433.084 41.3573 429.701 41.8537L441.514 61.1001H431.602L420.91 42.8041ZM424.304 19.722H412.559V35.2685H424.304C425.386 35.3697 426.477 35.2439 427.508 34.8993C428.538 34.5547 429.485 33.9988 430.288 33.2671C431.092 32.5355 431.734 31.6442 432.173 30.6503C432.612 29.6564 432.839 28.5818 432.839 27.4952C432.839 26.4086 432.612 25.334 432.173 24.3401C431.734 23.3462 431.092 22.455 430.288 21.7233C429.485 20.9916 428.538 20.4357 427.508 20.0911C426.477 19.7465 425.386 19.6207 424.304 19.722Z" fill="black"/>
<path d="M87.8819 12.0166H105.024L86.015 15.4111L81.9756 22.1999H121.555L117.515 15.7505H96.368L115.411 12.1524L112.016 6.44977C111.834 6.12213 111.575 5.84319 111.262 5.63644C110.949 5.42969 110.59 5.30118 110.217 5.26172H91.6497L87.8819 12.0166Z" fill="#CC122D"/>
<path d="M74.9491 10.4205L69.7556 28.1394L72.7767 34.3173L92.3626 0.780273H84.8609L75.0849 17.9222L80.2444 0.949995H74.6776C74.2642 0.952448 73.8593 1.06751 73.5065 1.28282C73.1536 1.49813 72.8661 1.80553 72.6748 2.17199L63.5778 17.4809L66.9722 23.523L74.9491 10.4205Z" fill="#CC122D"/>
<path d="M67.8887 49.1511L59.8099 35.5734L71.6226 49.1511H79.26L60.2512 15.3086L56.5173 21.792L66.4291 39.6467L54.0733 25.8313L50.9165 31.1606C50.7169 31.5063 50.6118 31.8985 50.6118 32.2977C50.6118 32.697 50.7169 33.0891 50.9165 33.4349L59.9457 48.9814L67.8887 49.1511Z" fill="#CC122D"/>
<path d="M88.0517 61.3712H71.7584L90.1901 57.3318L94.0598 50.543H56.3816L60.1155 57.3318H80.4821L62.254 61.0997L65.1053 66.3271C65.3055 66.6809 65.5969 66.9746 65.9491 67.1775C66.3013 67.3805 66.7015 67.4854 67.108 67.4812H84.5893L88.0517 61.3712Z" fill="#CC122D"/>
<path d="M101.561 63.6797L107.162 45.1121L103.428 38.3232L83.8425 72.2676H91.3442L102.003 53.4285L96.2322 72.2676H102.071C102.476 72.2648 102.873 72.1571 103.224 71.9548C103.575 71.7525 103.868 71.4626 104.073 71.1135L113.204 54.8541L109.81 48.812L101.561 63.6797Z" fill="#CC122D"/>
<path d="M126.816 41.0728C126.816 40.6682 126.71 40.2705 126.51 39.9187L117.244 23.9648H109.606L117.549 37.7802L104.447 23.9648H97.3862L117.379 57.9092L121.147 51.324L110.76 33.9445L123.591 47.5222L126.51 42.3627C126.718 42.014 126.824 41.6143 126.816 41.2086" fill="#CC122D"/>
</g>
<defs>
<clipPath id="clip0_207_228">
<rect width="445.791" height="100" fill="white"/>
</clipPath>
</defs>
</svg>
