<svg width="100" height="100" viewBox="0 0 100 100" fill="none" xmlns="http://www.w3.org/2000/svg">
<circle cx="50" cy="50" r="50" fill="#FF8600"/>
<g clip-path="url(#clip0_76_101)">
<path d="M74.2187 69.5313H73.4375V66.8063C74.9711 65.3266 75 63.4758 75 63.393C75.0004 63.2729 74.9732 63.1543 74.9203 63.0465C74.8675 62.9386 74.7905 62.8444 74.6953 62.7711L73.4375 61.8024V57.0305C73.4375 56.8233 73.3552 56.6246 73.2087 56.4781C73.0622 56.3316 72.8634 56.2493 72.6562 56.2493H70.0328L68.3062 49.8383L70.2555 45.0102C70.2942 44.915 70.3137 44.8131 70.3129 44.7104C70.3121 44.6077 70.291 44.5061 70.2508 44.4115C70.2106 44.317 70.152 44.2313 70.0785 44.1595C70.0051 44.0877 69.9181 44.0311 69.8227 43.993L39.7656 31.8922L38.7023 26.786C38.676 26.6601 38.619 26.5426 38.5364 26.4439C38.4538 26.3453 38.3482 26.2685 38.2289 26.2204L35.3305 25.0563C35.1858 24.9978 35.0269 24.9841 34.8744 25.017C34.7219 25.0499 34.5827 25.1278 34.475 25.2407C34.3523 25.3696 31.4437 28.4399 29.6586 32.8797C26.8617 39.8313 28.5953 46.0094 28.907 46.9985V65.6243H27.3437C27.1365 65.6243 26.9378 65.7066 26.7913 65.8531C26.6448 65.9996 26.5625 66.1983 26.5625 66.4055V69.5305H25.7812C25.574 69.5305 25.3753 69.6128 25.2288 69.7593C25.0823 69.9059 25 70.1046 25 70.3118V74.218C25 74.4252 25.0823 74.6239 25.2288 74.7704C25.3753 74.917 25.574 74.9993 25.7812 74.9993H74.2187C74.4259 74.9993 74.6247 74.917 74.7712 74.7704C74.9177 74.6239 75 74.4252 75 74.218V70.3118C75 70.1046 74.9177 69.9059 74.7712 69.7593C74.6247 69.6128 74.4259 69.5313 74.2187 69.5313ZM67.0367 63.3813C67.2562 64.343 68.1437 65.6954 69.9516 65.2258C70.675 65.0375 71.1289 64.636 71.4375 64.0922C71.7244 63.5857 71.8119 62.9903 71.6828 62.4227L73.3953 63.7422C73.2422 64.5727 72.803 65.3232 72.1539 65.8633C71.6523 66.2852 71.0039 66.5961 70.2289 66.7883C67.768 67.393 66.4766 66.1586 66.0125 65.561L67.0375 63.3821L67.0367 63.3813ZM32.6227 48.4141C33.107 48.5282 33.4109 48.2524 33.5344 47.9547L37.3922 38.6102L45.9773 42.0383L45.3305 45.9172L38.475 69.5305H32.8117V66.4055C32.8117 66.1983 32.7294 65.9996 32.5829 65.8531C32.4364 65.7066 32.2377 65.6243 32.0305 65.6243H30.468V47.8751L32.6219 48.4133L32.6227 48.4141ZM46.6805 46.8751H48.1781L41.6008 69.5313H40.1031L46.6805 46.8751ZM47.0859 56.236L49.2187 48.8954L50.768 54.2313L47.0859 56.2368V56.236ZM51.2133 55.7672L52.5148 60.2508L47.5094 57.7852L51.2133 55.7672ZM47.0156 45.3126L47.5687 41.993L49.3164 40.736L50.8812 41.4047L51.4406 45.3126H47.0156ZM46.3023 58.9329L52.2633 61.8696L43.5828 68.3055L46.3023 58.9329ZM53.3211 63.0305L55.2086 69.5321H44.5523L53.3211 63.0305ZM50.2578 46.8758H51.7555L58.3328 69.5321H56.8352L50.257 46.8758H50.2578ZM53.1078 45.9282L52.9508 44.8297L63.0891 48.8774L65.0953 56.2508H64.0617C62.3383 56.2508 60.9367 57.6524 60.9367 59.3758V65.4415L59.568 68.179L53.1078 45.9282ZM60.6383 69.5321L62.4992 65.8102V59.3758C62.4992 58.9614 62.6638 58.564 62.9569 58.271C63.2499 57.978 63.6473 57.8133 64.0617 57.8133H65.5203L66.4023 61.0563L64.4086 65.293C64.3577 65.3973 64.3312 65.5118 64.3314 65.6279C64.3315 65.7439 64.3582 65.8584 64.4094 65.9626C64.9086 66.9375 66.4437 68.5118 68.9695 68.5118C69.4742 68.5118 70.0172 68.4493 70.5992 68.3063C71.0369 68.198 71.4633 68.0483 71.8727 67.8594V69.5329H60.6367L60.6383 69.5321ZM71.8742 57.8133V60.6008L71.0281 59.9493L70.4531 57.8141L71.8742 57.8133ZM70.1492 62.6922C70.2125 62.9047 70.1867 63.129 70.0773 63.3219C69.9664 63.5172 69.7047 63.6805 69.4844 63.7368C69.2578 63.8211 69.1195 63.7735 69.0344 63.7313C68.8078 63.6157 68.6477 63.3493 68.5898 63.1399L64.9062 49.6024L66.8312 50.3711L70.1492 62.6922ZM68.5133 45.1524L67.05 48.7766L64.7641 47.8641L66.2484 44.2415L68.5133 45.1524ZM39.5125 33.4751L64.8 43.6563L63.3133 47.2836L52.6961 43.0446L52.3672 40.7501C52.3484 40.617 52.2956 40.4911 52.2139 40.3845C52.1322 40.2779 52.0243 40.1942 51.9008 40.1415L49.5258 39.1258C49.4021 39.0729 49.2668 39.0529 49.133 39.0677C48.9993 39.0824 48.8717 39.1315 48.7625 39.2102L46.7437 40.6626L37.9883 37.1672L39.5125 33.4751ZM31.1078 33.4633C32.4266 30.1836 34.4516 27.6461 35.257 26.7102L37.2586 27.5141L38.2727 32.3844L32.3484 46.7336L30.3109 46.2251C29.9109 44.7454 28.7445 39.3383 31.1086 33.4626L31.1078 33.4633ZM28.125 67.1875H31.25V69.5313H28.125V67.1875ZM73.4375 73.4375H26.5625V71.0938H73.4375V73.4375Z" fill="#2E294E"/>
<path d="M35.1562 32.0312C35.5877 32.0312 35.9375 31.6815 35.9375 31.25C35.9375 30.8185 35.5877 30.4688 35.1562 30.4688C34.7248 30.4688 34.375 30.8185 34.375 31.25C34.375 31.6815 34.7248 32.0312 35.1562 32.0312Z" fill="#2E294E"/>
<path d="M33.5938 35.1562C34.0252 35.1562 34.375 34.8065 34.375 34.375C34.375 33.9435 34.0252 33.5938 33.5938 33.5938C33.1623 33.5938 32.8125 33.9435 32.8125 34.375C32.8125 34.8065 33.1623 35.1562 33.5938 35.1562Z" fill="#2E294E"/>
</g>
<defs>
<clipPath id="clip0_76_101">
<rect width="50" height="50" fill="white" transform="translate(25 25)"/>
</clipPath>
</defs>
</svg>
