<svg width="103" height="104" viewBox="0 0 103 104" fill="none" xmlns="http://www.w3.org/2000/svg">
<g clip-path="url(#clip0_313_937)">
<path d="M81.4024 64.4243C79.2938 62.2074 76.7503 61.0221 74.0547 61.0221C71.3808 61.0221 68.8156 62.1855 66.62 64.4024L59.7505 71.3166C59.1853 71.0093 58.6201 70.724 58.0767 70.4386C57.2941 70.0435 56.5549 69.6704 55.9245 69.2753C49.4898 65.1487 43.642 59.771 38.0334 52.8128C35.3161 49.3448 33.49 46.4254 32.1639 43.4622C33.9465 41.8159 35.5987 40.1038 37.2074 38.4576C37.816 37.843 38.4247 37.2064 39.0334 36.5919C43.5986 31.9824 43.5986 26.012 39.0334 21.4025L33.0987 15.4102C32.4248 14.7297 31.7292 14.0273 31.077 13.3249C29.7727 11.9641 28.4031 10.5593 26.9901 9.24226C24.8814 7.13507 22.3597 6.01562 19.7076 6.01562C17.0554 6.01562 14.4902 7.13507 12.3164 9.24226C12.2946 9.26421 12.2946 9.26421 12.2729 9.28616L4.88167 16.815C2.0991 19.6246 0.512164 23.0488 0.164342 27.0217C-0.35739 33.4311 1.51215 39.4014 2.94692 43.3085C6.46861 52.9006 11.7294 61.7904 19.5771 71.3166C29.0988 82.7964 40.5551 91.8617 53.6419 98.2492C58.6419 100.642 65.3157 103.473 72.7721 103.956C73.2286 103.978 73.7069 104 74.1417 104C79.1633 104 83.3807 102.178 86.685 98.5565C86.7067 98.5126 86.7502 98.4906 86.7719 98.4467C87.9024 97.0639 89.2067 95.8127 90.5762 94.4738C91.511 93.5738 92.4675 92.63 93.4023 91.6422C95.5544 89.3814 96.6849 86.7474 96.6849 84.0476C96.6849 81.3258 95.5327 78.7137 93.3371 76.5187L81.4024 64.4243ZM89.185 87.5376C89.1632 87.5376 89.1632 87.5595 89.185 87.5376C88.3371 88.4595 87.4676 89.2936 86.5328 90.2155C85.1198 91.5764 83.685 93.0031 82.3372 94.6055C80.1416 96.9761 77.5547 98.0955 74.1634 98.0955C73.8373 98.0955 73.4895 98.0955 73.1634 98.0736C66.707 97.6565 60.7071 95.1103 56.2071 92.9373C43.9029 86.923 33.0987 78.3845 24.1206 67.5632C16.7076 58.5418 11.7512 50.2008 8.46859 41.2452C6.44687 35.7797 5.70775 31.5214 6.03383 27.5046C6.25122 24.9365 7.22947 22.8073 9.0338 20.9855L16.4467 13.5005C17.5119 12.4908 18.6424 11.9421 19.7511 11.9421C21.1206 11.9421 22.2293 12.7762 22.9249 13.4786C22.9467 13.5005 22.9684 13.5225 22.9901 13.5444C24.3162 14.7956 25.5771 16.0906 26.9031 17.4735C27.577 18.1759 28.2727 18.8783 28.9683 19.6026L34.903 25.5949C37.2074 27.9216 37.2074 30.0727 34.903 32.3994C34.2726 33.036 33.6639 33.6725 33.0335 34.2871C31.2074 36.1748 29.4683 37.9308 27.577 39.6429C27.5336 39.6868 27.4901 39.7087 27.4683 39.7526C25.5988 41.6403 25.9466 43.4841 26.3379 44.7353C26.3597 44.8011 26.3814 44.867 26.4031 44.9328C27.9466 48.7082 30.1205 52.2641 33.4248 56.5004L33.4465 56.5224C39.4465 63.9853 45.7725 69.8021 52.7506 74.2579C53.6419 74.8286 54.555 75.2896 55.4245 75.7285C56.2071 76.1236 56.9462 76.4968 57.5767 76.8919C57.6636 76.9358 57.7506 77.0016 57.8375 77.0455C58.5766 77.4187 59.2723 77.5943 59.9897 77.5943C61.794 77.5943 62.9244 76.4529 63.294 76.0797L70.7287 68.5729C71.4678 67.8266 72.6417 66.9266 74.0112 66.9266C75.359 66.9266 76.4677 67.7827 77.1416 68.529C77.1634 68.5509 77.1634 68.5509 77.1851 68.5729L89.1632 80.6673C91.4023 82.9062 91.4023 85.2109 89.185 87.5376Z" fill="#F6871F"/>
<path d="M55.6636 24.7377C61.3592 25.7035 66.5331 28.4253 70.6635 32.5958C74.7938 36.7663 77.4677 41.9904 78.446 47.7412C78.6851 49.1899 79.9242 50.1996 81.3372 50.1996C81.5111 50.1996 81.6633 50.1777 81.8372 50.1557C83.4459 49.8923 84.5111 48.3558 84.2502 46.7315C83.0763 39.7734 79.8155 33.4299 74.8373 28.4034C69.8591 23.3768 63.5766 20.0843 56.6854 18.899C55.0767 18.6356 53.5767 19.7112 53.2941 21.3135C53.0115 22.9159 54.055 24.4743 55.6636 24.7377Z" fill="#F6871F"/>
<path d="M102.88 45.8766C100.946 34.4187 95.5979 23.9925 87.3806 15.6955C79.1633 7.3984 68.8374 1.99872 57.4897 0.0451762C55.9028 -0.240173 54.4028 0.857323 54.1202 2.45967C53.8593 4.08396 54.9245 5.5985 56.5332 5.88385C66.6635 7.6179 75.9025 12.4688 83.2503 19.8659C90.598 27.285 95.3805 36.6137 97.0979 46.8424C97.337 48.2911 98.5761 49.3008 99.9892 49.3008C100.163 49.3008 100.315 49.2788 100.489 49.2569C102.076 49.0154 103.163 47.4789 102.88 45.8766Z" fill="#F6871F"/>
</g>
<defs>
<clipPath id="clip0_313_937">
<rect width="103" height="104" fill="white"/>
</clipPath>
</defs>
</svg>
