<svg xmlns="http://www.w3.org/2000/svg" version="1.1" xmlns:xlink="http://www.w3.org/1999/xlink" width="512" height="512" x="0" y="0" viewBox="0 0 60 60" style="enable-background:new 0 0 512 512" xml:space="preserve" class=""><g><path d="m28.764 34.625 8.016-10a1 1 0 1 0-1.561-1.25l-7.318 9.129-1.195-1.195a.999.999 0 1 0-1.414 1.414l1.984 1.984a1 1 0 0 0 .707.293c.018 0 .037 0 .055-.002a.995.995 0 0 0 .726-.373zM57.358 32.317l-4.964-9.02a.578.578 0 0 0-.781-.228l-7.75 4.281a.577.577 0 0 0-.228.782l6.545 11.866h2.63a5.151 5.151 0 0 0 4.678-2.943h.001c.338-.705.51-1.461.51-2.248a5.1 5.1 0 0 0-.642-2.491z" fill="#f6871f" opacity="1" data-original="#000000" class=""></path><path d="M52.811 42H42a1 1 0 0 1-1-1v-4.97l-7.991 10.938 7.989 11.022.002-4.991a1 1 0 0 1 1-1h6.151a3.48 3.48 0 0 0 3.127-1.971l4.06-8.48a7.226 7.226 0 0 1-2.528.451zM3.811 34.451a3.454 3.454 0 0 0 .223 3.681l5.475 7.65a7.297 7.297 0 0 1 .819-2.432l5.211-9.474a1 1 0 0 1 1.357-.395l4.36 2.391.006.004a.07.07 0 0 0 .021.009L15.51 23.604 2.003 25.301l4.374 2.402a.999.999 0 0 1 .395 1.357l-2.96 5.39z" fill="#f6871f" opacity="1" data-original="#000000" class=""></path><path d="M14.139 51.368c.765.42 1.639.629 2.482.632l9.809-.01a.57.57 0 0 0 .571-.569V42.52a.52.52 0 0 0-.52-.52H13.352l-1.272 2.312a5.168 5.168 0 0 0 .321 5.512 5.396 5.396 0 0 0 1.738 1.544zM25.017 2.003l-.009-.002a5.334 5.334 0 0 0-2.247.514 5.073 5.073 0 0 0-1.958 1.649l-5.696 7.979a.575.575 0 0 0-.099.433.553.553 0 0 0 .229.363l7.231 5.182a.513.513 0 0 0 .723-.121l7.637-10.674-1.138-2.382a5.16 5.16 0 0 0-4.673-2.94z" fill="#f6871f" opacity="1" data-original="#000000" class=""></path><path d="M50.991 7.818c.007-.015.008-.021.008-.021l-4.501 2.175a.999.999 0 0 1-1.334-.469l-2.657-5.539a3.47 3.47 0 0 0-3.1-1.962h-9.413a7.325 7.325 0 0 1 1.498 2.074l4.657 9.753a1 1 0 0 1-.468 1.331l-4.476 2.16 13.314 2.465 6.47-11.968z" fill="#f6871f" opacity="1" data-original="#000000" class=""></path></g></svg>