<svg width="100" height="100" viewBox="0 0 100 100" fill="none" xmlns="http://www.w3.org/2000/svg">
<g clip-path="url(#clip0_205_80)">
<path d="M82.7041 63.8799C82.7022 62.1568 82.0168 60.5048 80.7984 59.2864C79.58 58.0679 77.928 57.3826 76.2049 57.3807H56.5369C59.2531 50.7977 59.263 43.409 56.5644 36.8188C56.5409 36.7609 56.5138 36.7046 56.4834 36.65C55.9287 35.652 55.1065 34.8285 54.1093 34.2723C53.1121 33.7161 51.9795 33.4492 50.8388 33.5016C49.6982 33.554 48.5948 33.9237 47.6528 34.5691C46.7109 35.2144 45.9677 36.1098 45.5068 37.1545C45.4342 37.3195 45.3905 37.4958 45.3777 37.6756L44.9135 44.2668C44.2185 48.0547 42.1746 51.4626 39.1602 53.8594C37.9527 54.2832 35.7422 55.7824 29.9754 61.2697V61.1059C29.9745 60.2419 29.6309 59.4136 29.02 58.8027C28.4091 58.1918 27.5807 57.8483 26.7168 57.8475H10.3135C9.44956 57.8483 8.62129 58.1919 8.01041 58.8028C7.39953 59.4137 7.05596 60.242 7.05508 61.1059V93.8402C7.0557 94.7043 7.39916 95.5328 8.01007 96.1439C8.62097 96.755 9.4494 97.0987 10.3135 97.0996H26.7158C27.5798 97.0988 28.4081 96.7552 29.019 96.1443C29.6299 95.5335 29.9735 94.7052 29.9744 93.8412V93.6977C34.485 94.6926 36.8391 95.875 39.585 98.4258C40.6645 99.4528 42.1024 100.018 43.5924 100H69.0172C70.2509 100 71.4593 99.6496 72.501 98.9884C73.5426 98.3272 74.3744 97.383 74.899 96.2664C75.4237 95.1497 75.6195 93.9068 75.4636 92.6829C75.3077 91.4591 74.8064 90.3049 74.0186 89.3555C76.0477 88.135 77.4912 85.9498 77.4912 83.6281C77.4927 82.1837 77.0107 80.7804 76.1219 79.6418C78.1887 78.4178 79.6715 76.1582 79.6715 73.7545C79.6731 72.3994 79.2487 71.0781 78.4584 69.9773C79.7035 69.5154 80.7776 68.6837 81.5365 67.5938C82.2954 66.5039 82.7028 65.208 82.7041 63.8799ZM26.8494 93.8408C26.8481 93.8758 26.8336 93.909 26.8088 93.9338C26.784 93.9585 26.7508 93.973 26.7158 93.9742H10.3135C10.2785 93.973 10.2453 93.9585 10.2205 93.9338C10.1958 93.909 10.1813 93.8758 10.1801 93.8408V61.1064C10.1814 61.0715 10.1959 61.0383 10.2206 61.0136C10.2453 60.9888 10.2785 60.9744 10.3135 60.9731H26.7158C26.7508 60.9744 26.784 60.9888 26.8088 61.0136C26.8335 61.0383 26.8481 61.0715 26.8494 61.1064V93.8408ZM76.2049 67.2539H70.7742C70.3598 67.2539 69.9624 67.4185 69.6694 67.7116C69.3763 68.0046 69.2117 68.402 69.2117 68.8164C69.2117 69.2308 69.3763 69.6282 69.6694 69.9213C69.9624 70.2143 70.3598 70.3789 70.7742 70.3789H73.1723C74.0668 70.3801 74.9243 70.736 75.5568 71.3686C76.1893 72.0011 76.5452 72.8586 76.5465 73.7531C76.5465 75.5109 74.8094 77.2992 73.0266 77.4535C72.3701 77.237 71.6832 77.1269 70.992 77.1275C70.5776 77.1275 70.1802 77.2922 69.8871 77.5852C69.5941 77.8782 69.4295 78.2756 69.4295 78.69C69.4295 79.1044 69.5941 79.5019 69.8871 79.7949C70.1802 80.0879 70.5776 80.2525 70.992 80.2525C71.3871 80.2521 71.7792 80.3214 72.1502 80.4572C72.1914 80.4754 72.2332 80.4918 72.2762 80.5063C72.894 80.7615 73.4224 81.1941 73.7943 81.7496C74.1663 82.305 74.3653 82.9583 74.366 83.6268C74.366 85.3494 72.5598 87.1033 70.7207 87.2275C70.1654 87.0768 69.5924 87.0006 69.017 87.001C68.6026 87.001 68.2052 87.1656 67.9121 87.4586C67.6191 87.7517 67.4545 88.1491 67.4545 88.5635C67.4545 88.9779 67.6191 89.3753 67.9121 89.6683C68.2052 89.9614 68.6026 90.126 69.017 90.126C69.3442 90.1258 69.6697 90.1733 69.9832 90.267C70.0201 90.2803 70.0578 90.2924 70.0961 90.3029C70.8545 90.5586 71.4974 91.0755 71.91 91.7614C72.3225 92.4473 72.4778 93.2574 72.3481 94.0472C72.2185 94.837 71.8123 95.555 71.2021 96.073C70.592 96.591 69.8176 96.8753 69.0172 96.875H43.5924C43.2456 96.8828 42.9007 96.8215 42.5778 96.6946C42.255 96.5678 41.9605 96.378 41.7117 96.1363C38.3934 93.0533 35.4928 91.6498 29.9744 90.5016V65.6084L30.2516 65.3387C37.9207 57.8908 39.7994 56.9238 40.1982 56.8064C40.4299 56.7588 40.6477 56.6593 40.8354 56.5154C44.6119 53.6227 47.1693 49.4214 48.0045 44.7381C48.0142 44.6833 48.0211 44.628 48.0252 44.5725L48.4744 38.1965C48.7282 37.7289 49.1014 37.337 49.5559 37.0605C50.0105 36.784 50.5301 36.633 51.062 36.6226C51.594 36.6123 52.1191 36.7431 52.584 37.0018C53.049 37.2604 53.437 37.6376 53.7088 38.0949C55.0136 41.3207 55.5992 44.7923 55.4249 48.2676C55.2505 51.7429 54.3203 55.1384 52.6992 58.2174C52.5741 58.4555 52.5127 58.7219 52.5207 58.9908C52.5288 59.2597 52.6061 59.5219 52.7453 59.7521C52.8844 59.9823 53.0806 60.1727 53.3149 60.3049C53.5492 60.437 53.8136 60.5065 54.0826 60.5065H76.2049C77.0954 60.5132 77.9471 60.8717 78.5743 61.5038C79.2016 62.1359 79.5536 62.9903 79.5536 63.8808C79.5536 64.7713 79.2016 65.6257 78.5743 66.2577C77.9471 66.8898 77.0954 67.2483 76.2049 67.2551V67.2539ZM21.5527 66.1055V66.2939C21.5527 66.7084 21.3881 67.1058 21.0951 67.3988C20.8021 67.6918 20.4046 67.8564 19.9902 67.8564C19.5758 67.8564 19.1784 67.6918 18.8854 67.3988C18.5924 67.1058 18.4277 66.7084 18.4277 66.2939V66.1055C18.4277 65.6911 18.5924 65.2936 18.8854 65.0006C19.1784 64.7076 19.5758 64.543 19.9902 64.543C20.4046 64.543 20.8021 64.7076 21.0951 65.0006C21.3881 65.2936 21.5527 65.6911 21.5527 66.1055ZM68.4375 13.3949C68.3433 13.1049 68.1663 12.8488 67.9282 12.6582C67.6902 12.4675 67.4016 12.3507 67.098 12.3221L55.899 11.2674L51.4342 0.942391C51.3132 0.662499 51.1129 0.424136 50.858 0.256681C50.6032 0.0892264 50.3049 0 50 0C49.6951 0 49.3968 0.0892264 49.142 0.256681C48.8871 0.424136 48.6868 0.662499 48.5658 0.942391L44.1016 11.2672L32.9027 12.3219C32.5992 12.3505 32.3106 12.4673 32.0726 12.6579C31.8346 12.8486 31.6576 13.1047 31.5634 13.3947C31.4691 13.6847 31.4618 13.9959 31.5423 14.29C31.6228 14.5841 31.7876 14.8482 32.0164 15.0498L40.4564 22.4858L37.999 33.4623C37.9324 33.7599 37.9544 34.0704 38.0621 34.3557C38.1699 34.6409 38.3587 34.8884 38.6054 35.0676C38.8521 35.2469 39.1458 35.35 39.4504 35.3643C39.755 35.3786 40.0571 35.3035 40.3195 35.1483L50 29.4195L59.6801 35.1486C59.9425 35.3039 60.2446 35.379 60.5492 35.3647C60.8538 35.3504 61.1475 35.2473 61.3942 35.068C61.6409 34.8888 61.8298 34.6413 61.9375 34.3561C62.0453 34.0708 62.0672 33.7603 62.0006 33.4627L59.5434 22.4861L67.9834 15.0502C68.2124 14.8487 68.3774 14.5846 68.4581 14.2905C68.5388 13.9964 68.5316 13.685 68.4375 13.3949ZM56.7846 20.7525C56.5745 20.9376 56.418 21.1758 56.3315 21.4421C56.245 21.7084 56.2316 21.993 56.2928 22.2662L58.1627 30.6188L50.7969 26.2592C50.5559 26.1165 50.281 26.0413 50.001 26.0413C49.7209 26.0413 49.4461 26.1165 49.2051 26.2592L41.8393 30.6188L43.7082 22.2656C43.7694 21.9924 43.756 21.7078 43.6695 21.4415C43.583 21.1752 43.4265 20.9371 43.2164 20.752L36.7943 15.0938L45.3158 14.291C45.5946 14.2647 45.8611 14.164 46.0876 13.9995C46.3141 13.8349 46.4922 13.6125 46.6033 13.3555L50 5.49981L53.3967 13.3561C53.5078 13.6131 53.6859 13.8355 53.9124 14C54.1389 14.1646 54.4054 14.2653 54.6842 14.2916L63.2059 15.0943L56.7846 20.7525ZM95.9459 22.5508C95.8517 22.2608 95.6747 22.0046 95.4366 21.814C95.1986 21.6234 94.91 21.5065 94.6064 21.4779L86.7145 20.7346L83.5678 13.4586C83.4468 13.1787 83.2465 12.9403 82.9916 12.7729C82.7368 12.6054 82.4385 12.5162 82.1336 12.5162C81.8287 12.5162 81.5304 12.6054 81.2755 12.7729C81.0207 12.9403 80.8204 13.1787 80.6994 13.4586L77.5537 20.7346L69.6615 21.4779C69.3579 21.5065 69.0693 21.6233 68.8312 21.814C68.5932 22.0046 68.4162 22.2607 68.3219 22.5508C68.2277 22.8408 68.2204 23.1521 68.301 23.4462C68.3815 23.7404 68.5463 24.0045 68.7752 24.2061L74.723 29.4461L72.9914 37.1816C72.9248 37.4793 72.9468 37.7899 73.0546 38.0751C73.1624 38.3604 73.3513 38.6079 73.5981 38.7871C73.8448 38.9663 74.1387 39.0694 74.4433 39.0836C74.748 39.0979 75.0501 39.0226 75.3125 38.8672L82.1342 34.8299L88.9553 38.8672C89.2177 39.0225 89.5198 39.0977 89.8245 39.0834C90.1291 39.0691 90.4229 38.966 90.6696 38.7868C90.9163 38.6075 91.1052 38.36 91.2129 38.0747C91.3207 37.7894 91.3426 37.4788 91.276 37.1813L89.5441 29.4457L95.4918 24.2057C95.7205 24.0041 95.8853 23.74 95.9658 23.446C96.0463 23.1519 96.0391 22.8408 95.9449 22.5508H95.9459ZM86.7857 27.7127C86.5757 27.8978 86.4192 28.1359 86.3327 28.4022C86.2462 28.6685 86.2328 28.9532 86.2939 29.2264L87.4383 34.3377L82.9297 31.6699C82.6887 31.5273 82.4138 31.452 82.1338 31.452C81.8538 31.452 81.5789 31.5273 81.3379 31.6699L76.8307 34.3377L77.9748 29.2264C78.036 28.9532 78.0226 28.6685 77.9361 28.4022C77.8496 28.1359 77.6931 27.8978 77.483 27.7127L73.5527 24.2504L78.7676 23.759C79.0464 23.7327 79.3129 23.6321 79.5395 23.4675C79.766 23.3029 79.9442 23.0805 80.0553 22.8234L82.1338 18.0158L84.2123 22.8234C84.3234 23.0805 84.5016 23.3029 84.7281 23.4675C84.9546 23.6321 85.2212 23.7327 85.5 23.759L90.7148 24.2504L86.7857 27.7127ZM30.3404 21.4779L22.4484 20.7346L19.3006 13.4586C19.1796 13.1787 18.9793 12.9403 18.7245 12.7729C18.4696 12.6054 18.1713 12.5162 17.8664 12.5162C17.5615 12.5162 17.2632 12.6054 17.0084 12.7729C16.7535 12.9403 16.5532 13.1787 16.4322 13.4586L13.2865 20.7346L5.39453 21.4779C5.09091 21.5065 4.80229 21.6233 4.56426 21.814C4.32622 22.0046 4.14917 22.2607 4.05494 22.5508C3.96071 22.8408 3.95342 23.1521 4.03396 23.4462C4.1145 23.7404 4.27936 24.0045 4.5082 24.2061L10.4559 29.4461L8.72402 37.1816C8.6575 37.4792 8.67948 37.7897 8.78728 38.075C8.89507 38.3602 9.08395 38.6076 9.33066 38.7868C9.57736 38.966 9.87109 39.0691 10.1757 39.0834C10.4802 39.0976 10.7823 39.0225 11.0447 38.8672L17.8664 34.8299L24.6875 38.8672C24.9499 39.0225 25.252 39.0976 25.5566 39.0833C25.8612 39.0689 26.1549 38.9658 26.4016 38.7866C26.6483 38.6074 26.8372 38.3599 26.9449 38.0746C27.0527 37.7894 27.0746 37.4788 27.008 37.1813L25.2762 29.4457L31.224 24.2057C31.4529 24.0041 31.6177 23.74 31.6983 23.4458C31.7788 23.1517 31.7715 22.8404 31.6773 22.5504C31.5831 22.2603 31.406 22.0042 31.168 21.8136C30.9299 21.6229 30.6413 21.5061 30.3377 21.4775L30.3404 21.4779ZM22.5193 27.7127C22.3093 27.8978 22.1528 28.1359 22.0663 28.4022C21.9798 28.6685 21.9664 28.9532 22.0275 29.2264L23.1717 34.3375L18.6623 31.6699C18.4213 31.5273 18.1464 31.452 17.8664 31.452C17.5864 31.452 17.3115 31.5273 17.0705 31.6699L12.5631 34.3377L13.7074 29.2264C13.7686 28.9532 13.7552 28.6685 13.6687 28.4022C13.5822 28.1359 13.4257 27.8978 13.2156 27.7127L9.28555 24.2504L14.5004 23.759C14.7792 23.7327 15.0458 23.6321 15.2723 23.4675C15.4988 23.3029 15.677 23.0805 15.7881 22.8234L17.8664 18.016L19.9449 22.8234C20.056 23.0804 20.2341 23.3028 20.4606 23.4674C20.6871 23.632 20.9537 23.7327 21.2324 23.759L26.4473 24.2504L22.5193 27.7127Z" fill="#F6871F"/>
</g>
<defs>
<clipPath id="clip0_205_80">
<rect width="100" height="100" fill="white"/>
</clipPath>
</defs>
</svg>
