<svg width="100" height="100" viewBox="0 0 100 100" fill="none" xmlns="http://www.w3.org/2000/svg">
<circle cx="50" cy="50" r="50" fill="#FF8600"/>
<g clip-path="url(#clip0_76_100)">
<path d="M36.6667 57.9167C33.9092 57.9167 31.6667 60.1592 31.6667 62.9168C31.6667 65.6743 33.9092 67.9168 36.6667 67.9168C39.4242 67.9168 41.6667 65.6743 41.6667 62.9168C41.6667 60.1592 39.4241 57.9167 36.6667 57.9167ZM36.6667 66.2501C34.8283 66.2501 33.3334 64.755 33.3334 62.9168C33.3334 61.0784 34.8284 59.5834 36.6667 59.5834C38.505 59.5834 40 61.0785 40 62.9168C40 64.755 38.505 66.2501 36.6667 66.2501ZM65 57.9167C62.2425 57.9167 60 60.1592 60 62.9168C60 65.6743 62.2425 67.9168 65 67.9168C67.7575 67.9168 70 65.6743 70 62.9168C70 60.1592 67.7575 57.9167 65 57.9167ZM65 66.2501C63.1616 66.2501 61.6667 64.755 61.6667 62.9168C61.6667 61.0784 63.1617 59.5834 65 59.5834C66.8384 59.5834 68.3333 61.0785 68.3333 62.9168C68.3333 64.755 66.8384 66.2501 65 66.2501Z" fill="#2E294E"/>
<path d="M74.8675 53.2992L67.3675 41.6325C67.292 41.5152 67.1883 41.4187 67.0658 41.3519C66.9434 41.285 66.8061 41.25 66.6666 41.25H57.5C57.3906 41.25 57.2822 41.2715 57.1811 41.3134C57.0799 41.3552 56.9881 41.4166 56.9107 41.494C56.8333 41.5714 56.7719 41.6632 56.73 41.7644C56.6882 41.8655 56.6667 41.9739 56.6667 42.0833V62.9166C56.6666 63.0261 56.6881 63.1345 56.7299 63.2356C56.7718 63.3368 56.8331 63.4287 56.9105 63.5061C56.9879 63.5835 57.0798 63.6448 57.181 63.6867C57.2821 63.7285 57.3905 63.75 57.5 63.7499H60.8333V62.0832H58.3333V42.9167H66.2116L73.3333 53.995V62.0834H69.1666V63.75H74.1666C74.2761 63.7501 74.3845 63.7286 74.4856 63.6868C74.5868 63.6449 74.6787 63.5836 74.7561 63.5062C74.8335 63.4288 74.8948 63.3369 74.9367 63.2357C74.9785 63.1346 75 63.0262 74.9999 62.9167V53.75C75 53.5901 74.9541 53.4336 74.8675 53.2992Z" fill="#2E294E"/>
<path d="M61.6667 52.0834V46.2501H68.3334V44.5834H60.8334C60.7239 44.5833 60.6156 44.6048 60.5145 44.6467C60.4133 44.6886 60.3215 44.75 60.2441 44.8273C60.1667 44.9047 60.1053 44.9966 60.0634 45.0977C60.0216 45.1988 60 45.3072 60.0001 45.4167V52.9167C60 53.0261 60.0215 53.1345 60.0633 53.2357C60.1052 53.3368 60.1665 53.4287 60.2439 53.5061C60.3213 53.5835 60.4132 53.6449 60.5144 53.6867C60.6155 53.7286 60.7239 53.7501 60.8334 53.75H73.3334V52.0833H61.6667V52.0834ZM57.5 35.4167H25.8333C25.6123 35.4168 25.4004 35.5046 25.2442 35.6609C25.0879 35.8172 25.0001 36.0291 25 36.25V62.9168C25 63.0262 25.0215 63.1346 25.0634 63.2357C25.1052 63.3368 25.1666 63.4287 25.244 63.5061C25.3214 63.5835 25.4132 63.6449 25.5144 63.6867C25.6155 63.7286 25.7239 63.7501 25.8333 63.7501H32.5V62.0834H26.6667V37.0834H56.6667V62.0834H40.8333V63.7501H57.5C57.6094 63.7502 57.7179 63.7287 57.819 63.6868C57.9202 63.645 58.0121 63.5836 58.0895 63.5062C58.1669 63.4288 58.2282 63.3369 58.2701 63.2358C58.3119 63.1346 58.3334 63.0262 58.3333 62.9168V36.25C58.3333 36.1406 58.3118 36.0322 58.2699 35.9311C58.2281 35.83 58.1667 35.7381 58.0893 35.6607C58.0119 35.5833 57.92 35.522 57.8189 35.4801C57.7178 35.4382 57.6094 35.4167 57.5 35.4167Z" fill="#2E294E"/>
<path d="M25.8333 58.7499H30.8333V60.4166H25.8333V58.7499ZM42.5 58.7499H56.6667V60.4166H42.5V58.7499ZM70.8333 58.7499H74.1666V60.4166H70.8333V58.7499ZM28.3333 38.75H57.5V40.4166H28.3333V38.75ZM35.8333 62.0832H37.5V63.7499H35.8333V62.0832ZM64.1667 62.0832H65.8334V63.7499H64.1667V62.0832ZM28.3333 32.0833H40V33.75H28.3333V32.0833ZM25 32.0833H26.6667V33.75H25V32.0833Z" fill="#2E294E"/>
</g>
<defs>
<clipPath id="clip0_76_100">
<rect width="50" height="50" fill="white" transform="translate(25 25)"/>
</clipPath>
</defs>
</svg>
