<svg width="98" height="98" viewBox="0 0 98 98" fill="none" xmlns="http://www.w3.org/2000/svg">
<path d="M72.7344 33.8219C71.4107 28.531 68.3575 23.834 64.0593 20.4767C59.7612 17.1193 54.4647 15.2942 49.0107 15.291C43.5568 15.2879 38.2581 17.1069 33.9561 20.4592C29.6541 23.8115 26.5954 28.505 25.2656 33.7943C18.9931 34.383 13.1884 37.3654 9.05731 42.122C4.92621 46.8785 2.78622 53.0437 3.08185 59.3368C3.37749 65.63 6.08603 71.5674 10.6449 75.9157C15.2037 80.2641 21.2624 82.6891 27.5625 82.6871H36.75C37.5622 82.6871 38.3412 82.3645 38.9155 81.7902C39.4898 81.2158 39.8125 80.4369 39.8125 79.6246C39.8125 78.8124 39.4898 78.0335 38.9155 77.4591C38.3412 76.8848 37.5622 76.5621 36.75 76.5621H27.5625C25.1495 76.5692 22.7587 76.1009 20.5266 75.1839C18.2946 74.267 16.265 72.9194 14.5537 71.2181C11.0977 67.7822 9.14811 63.1141 9.1339 58.2407C9.11969 53.3674 11.042 48.688 14.4779 45.232C17.9138 41.7759 22.582 39.8264 27.4553 39.8121C28.2411 39.8713 29.0209 39.6365 29.6433 39.1532C30.2658 38.67 30.6866 37.9727 30.8241 37.1968C31.4477 32.8237 33.628 28.8224 36.9647 25.9278C40.3014 23.0332 44.5704 21.4395 48.9877 21.4395C53.405 21.4395 57.674 23.0332 61.0108 25.9278C64.3475 28.8224 66.5278 32.8237 67.1514 37.1968C67.3116 37.9458 67.7268 38.616 68.3261 39.0929C68.9254 39.5699 69.6716 39.8241 70.4375 39.8121C75.3108 39.8121 79.9846 41.7481 83.4306 45.1941C86.8766 48.64 88.8125 53.3138 88.8125 58.1871C88.8125 63.0605 86.8766 67.7343 83.4306 71.1802C79.9846 74.6262 75.3108 76.5621 70.4375 76.5621H61.25C60.4378 76.5621 59.6588 76.8848 59.0845 77.4591C58.5101 78.0335 58.1875 78.8124 58.1875 79.6246C58.1875 80.4369 58.5101 81.2158 59.0845 81.7902C59.6588 82.3645 60.4378 82.6871 61.25 82.6871H70.4375C76.6915 82.6217 82.6837 80.1669 87.1861 75.8259C91.6886 71.4849 94.3604 65.5863 94.6541 59.3388C94.9477 53.0914 92.841 46.9682 88.7656 42.2239C84.6901 37.4797 78.9546 34.4737 72.7344 33.8219Z" fill="#989898"/>
<path d="M62.1473 60.352C62.7249 60.9099 63.4985 61.2186 64.3015 61.2116C65.1045 61.2046 65.8726 60.8825 66.4404 60.3147C67.0082 59.7469 67.3303 58.9788 67.3372 58.1758C67.3442 57.3728 67.0355 56.5993 66.4777 56.0217L51.1652 40.7092C50.5909 40.135 49.8121 39.8125 49 39.8125C48.1879 39.8125 47.4091 40.135 46.8348 40.7092L31.5223 56.0217C30.9644 56.5993 30.6558 57.3728 30.6627 58.1758C30.6697 58.9788 30.9918 59.7469 31.5596 60.3147C32.1274 60.8825 32.8955 61.2046 33.6985 61.2116C34.5015 61.2186 35.2751 60.9099 35.8527 60.352L45.9375 50.2672V88.8118C45.9375 89.6241 46.2601 90.403 46.8345 90.9774C47.4088 91.5517 48.1878 91.8743 49 91.8743C49.8122 91.8743 50.5912 91.5517 51.1655 90.9774C51.7398 90.403 52.0625 89.6241 52.0625 88.8118V50.2672L62.1473 60.352Z" fill="#989898"/>
</svg>
