<svg width="435" height="114" viewBox="0 0 435 114" fill="none" xmlns="http://www.w3.org/2000/svg">
<g clip-path="url(#clip0_207_264)">
<path d="M13.26 1.39001L24.9 37.57L36.53 1.39001C36.659 0.987164 36.9124 0.635598 37.2538 0.385842C37.5952 0.136086 38.007 0.00100242 38.43 7.0083e-06H44.53C44.9547 -0.00111699 45.3687 0.132987 45.7121 0.382894C46.0555 0.632801 46.3105 0.985536 46.44 1.39001L58.07 37.57L69.7 1.39001C69.8295 0.985536 70.0844 0.632801 70.4278 0.382894C70.7712 0.132987 71.1853 -0.00111699 71.61 7.0083e-06H81C81.3172 0.000773464 81.6296 0.0769609 81.9115 0.222281C82.1934 0.3676 82.4368 0.577885 82.6214 0.835777C82.806 1.09367 82.9267 1.39177 82.9734 1.70549C83.0201 2.0192 82.9915 2.33952 82.89 2.64001L64.89 55.34C64.7547 55.7338 64.4998 56.0755 64.161 56.3175C63.8222 56.5595 63.4163 56.6897 63 56.69H54.8C54.3848 56.6904 53.9799 56.5617 53.6412 56.3215C53.3025 56.0814 53.047 55.7419 52.91 55.35L41.48 22.27L30 55.35C29.863 55.7419 29.6074 56.0814 29.2688 56.3215C28.9301 56.5617 28.5251 56.6904 28.11 56.69H20C19.5836 56.6897 19.1777 56.5595 18.8389 56.3175C18.5001 56.0755 18.2453 55.7338 18.11 55.34L0.109989 2.64001C0.00849413 2.33952 -0.0200798 2.0192 0.0266258 1.70549C0.0733314 1.39177 0.193977 1.09367 0.378605 0.835777C0.563232 0.577885 0.806547 0.3676 1.08847 0.222281C1.37038 0.0769609 1.68282 0.000773464 1.99999 7.0083e-06H11.36C11.783 0.00100242 12.1948 0.136086 12.5362 0.385842C12.8776 0.635598 13.131 0.987164 13.26 1.39001Z" fill="#184E24"/>
<path d="M162.43 2V45.64H178C178.53 45.64 179.039 45.8507 179.414 46.2258C179.789 46.6009 180 47.1096 180 47.64V54.64C180 55.1704 179.789 55.6791 179.414 56.0542C179.039 56.4293 178.53 56.64 178 56.64H151.33C150.8 56.64 150.291 56.4293 149.916 56.0542C149.541 55.6791 149.33 55.1704 149.33 54.64V2C149.33 1.46957 149.541 0.960859 149.916 0.585786C150.291 0.210714 150.8 0 151.33 0L160.43 0C160.96 0 161.469 0.210714 161.844 0.585786C162.219 0.960859 162.43 1.46957 162.43 2Z" fill="#184E24"/>
<path d="M215.77 11.05H199.4V22H214.4C214.93 22 215.439 22.2107 215.814 22.5858C216.189 22.9609 216.4 23.4696 216.4 24V31C216.4 31.5304 216.189 32.0391 215.814 32.4142C215.439 32.7893 214.93 33 214.4 33H199.4V54.69C199.4 55.2204 199.189 55.7291 198.814 56.1042C198.439 56.4793 197.93 56.69 197.4 56.69H188.3C187.77 56.69 187.261 56.4793 186.886 56.1042C186.511 55.7291 186.3 55.2204 186.3 54.69V2C186.3 1.46957 186.511 0.960859 186.886 0.585786C187.261 0.210714 187.77 0 188.3 0L215.77 0C216.3 0 216.809 0.210714 217.184 0.585786C217.559 0.960859 217.77 1.46957 217.77 2V9.05C217.77 9.58043 217.559 10.0891 217.184 10.4642C216.809 10.8393 216.3 11.05 215.77 11.05Z" fill="#184E24"/>
<path d="M249.29 11.05V54.69C249.29 55.2204 249.079 55.7291 248.704 56.1042C248.329 56.4793 247.82 56.69 247.29 56.69H238.19C237.66 56.69 237.151 56.4793 236.776 56.1042C236.401 55.7291 236.19 55.2204 236.19 54.69V11.05H225.85C225.32 11.05 224.811 10.8393 224.436 10.4642C224.061 10.0891 223.85 9.58043 223.85 9.05V2C223.85 1.46957 224.061 0.960859 224.436 0.585786C224.811 0.210714 225.32 0 225.85 0L259.62 0C260.15 0 260.659 0.210714 261.034 0.585786C261.409 0.960859 261.62 1.46957 261.62 2V9.05C261.62 9.58043 261.409 10.0891 261.034 10.4642C260.659 10.8393 260.15 11.05 259.62 11.05H249.29Z" fill="#184E24"/>
<path d="M298.28 46H276.85L273 55.44C272.851 55.8087 272.595 56.1245 272.266 56.3472C271.936 56.5698 271.548 56.6892 271.15 56.69H261.85C261.523 56.6893 261.201 56.6084 260.912 56.4544C260.624 56.3003 260.377 56.0778 260.195 55.8064C260.012 55.5349 259.899 55.2228 259.865 54.8974C259.831 54.572 259.877 54.2433 260 53.94L281.27 1.25001C281.42 0.879749 281.677 0.562813 282.008 0.34003C282.34 0.117247 282.731 -0.00117875 283.13 8.84527e-06H292.41C292.812 0.000413663 293.204 0.121782 293.536 0.348305C293.867 0.574828 294.123 0.896007 294.27 1.27001L315.07 54C315.189 54.3031 315.232 54.6305 315.195 54.954C315.159 55.2774 315.044 55.5871 314.861 55.8561C314.677 56.1251 314.431 56.3453 314.144 56.4976C313.856 56.6499 313.535 56.7297 313.21 56.73H303.89C303.48 56.7334 303.078 56.6105 302.74 56.3779C302.402 56.1454 302.144 55.8144 302 55.43L298.28 46ZM294.71 36L287.71 17L280.65 36H294.71Z" fill="#184E24"/>
<path d="M321.29 54.69V2C321.29 1.46957 321.501 0.96086 321.876 0.585787C322.251 0.210714 322.76 6.67824e-07 323.29 6.67824e-07H331.76C332.051 -0.000237407 332.339 0.0631812 332.604 0.18582C332.868 0.308459 333.102 0.487358 333.29 0.710001L363.48 36.55V2C363.48 1.46957 363.691 0.96086 364.066 0.585787C364.441 0.210714 364.95 6.67824e-07 365.48 6.67824e-07H374.58C375.11 6.67824e-07 375.619 0.210714 375.994 0.585787C376.369 0.96086 376.58 1.46957 376.58 2V54.69C376.58 55.2204 376.369 55.7291 375.994 56.1042C375.619 56.4793 375.11 56.69 374.58 56.69H366.12C365.827 56.6917 365.537 56.629 365.271 56.5063C365.005 56.3836 364.769 56.2039 364.58 55.98L334.39 20V54.69C334.39 55.2204 334.179 55.7291 333.804 56.1042C333.429 56.4793 332.92 56.69 332.39 56.69H323.29C322.76 56.69 322.251 56.4793 321.876 56.1042C321.501 55.7291 321.29 55.2204 321.29 54.69Z" fill="#184E24"/>
<path d="M399.1 23.63L417.89 0.730006C418.078 0.501108 418.315 0.316875 418.583 0.190627C418.851 0.0643791 419.144 -0.000730231 419.44 6.17774e-06H430.14C430.522 -1.89773e-05 430.897 0.109543 431.219 0.315714C431.541 0.521885 431.797 0.816024 431.957 1.16329C432.117 1.51055 432.174 1.89638 432.121 2.27508C432.069 2.65377 431.909 3.00946 431.66 3.30001L412.61 25.58C412.305 25.9408 412.138 26.3978 412.138 26.87C412.138 27.3422 412.305 27.7992 412.61 28.16L433.61 53.42C433.854 53.717 434.008 54.0783 434.053 54.4604C434.097 54.8426 434.03 55.2294 433.86 55.5745C433.69 55.9197 433.424 56.2085 433.094 56.4063C432.764 56.6042 432.385 56.7027 432 56.69H420.38C420.083 56.6895 419.79 56.6229 419.522 56.4949C419.253 56.3669 419.017 56.1807 418.83 55.95L399.1 31.53V54.69C399.1 55.2204 398.889 55.7291 398.514 56.1042C398.139 56.4793 397.63 56.69 397.1 56.69H388C387.47 56.69 386.961 56.4793 386.586 56.1042C386.211 55.7291 386 55.2204 386 54.69V2.00001C386 1.46957 386.211 0.960865 386.586 0.585793C386.961 0.21072 387.47 6.17774e-06 388 6.17774e-06H397.1C397.63 6.17774e-06 398.139 0.21072 398.514 0.585793C398.889 0.960865 399.1 1.46957 399.1 2.00001V23.63Z" fill="#184E24"/>
<path d="M112.65 56.7C128.307 56.7 141 44.0073 141 28.35C141 12.6927 128.307 0 112.65 0C96.9928 0 84.3 12.6927 84.3 28.35C84.3 44.0073 96.9928 56.7 112.65 56.7Z" fill="#184E24"/>
<path d="M119.73 28.35C119.73 31.8721 118.537 35.2902 116.345 38.047C114.153 40.8038 111.091 42.7366 107.66 43.53C106.507 43.8046 105.325 43.9422 104.14 43.94C103.62 43.94 103.14 43.94 102.59 43.86C101.998 43.8033 101.41 43.7098 100.83 43.58L100.25 43.44C100.003 43.38 99.7533 43.31 99.4999 43.23C99.2699 43.16 99.0399 43.09 98.8099 43H98.7199C98.4999 42.93 98.2899 42.84 98.0899 42.76H98.0299L97.4299 42.49L97.2699 42.41L96.7899 42.16C96.4946 42.0125 96.2075 41.8489 95.9299 41.67C95.7607 41.5728 95.5971 41.4659 95.4399 41.35L94.9699 41.02L94.7399 40.84L94.3499 40.54C94.2817 40.4891 94.2182 40.4322 94.16 40.37C94.04 40.28 93.9299 40.18 93.8099 40.07L93.6199 39.91L93.2699 39.57L92.9999 39.26C92.8999 39.16 92.7999 39.06 92.7099 38.95C92.5587 38.7973 92.4152 38.6371 92.2799 38.47L91.9999 38.13C91.9399 38.05 91.8699 37.97 91.8099 37.88L91.5599 37.55C91.4332 37.3872 91.3163 37.2169 91.2099 37.04C91.0907 36.8762 90.9805 36.706 90.8799 36.53C90.8376 36.4772 90.8008 36.4203 90.7699 36.36C90.6499 36.17 90.5399 35.97 90.4299 35.78C90.3199 35.59 90.2199 35.38 90.1199 35.17L90.0699 35.07C89.9899 34.9 89.9099 34.73 89.8399 34.56C89.8091 34.4986 89.7823 34.4351 89.7599 34.37C89.688 34.2102 89.6245 34.0466 89.5699 33.88C89.3161 33.2299 89.1121 32.5613 88.9599 31.88C88.9599 31.73 88.8899 31.58 88.8599 31.43C88.7019 30.6825 88.6049 29.9233 88.5699 29.16C88.5699 28.9 88.5699 28.63 88.5699 28.37C88.5699 28.11 88.5699 27.95 88.5699 27.74C88.6915 24.724 89.6887 21.8086 91.4399 19.35C93.3498 16.6498 96.0694 14.6273 99.2051 13.5755C102.341 12.5236 105.73 12.497 108.882 13.4993C112.034 14.5017 114.785 16.4811 116.737 19.1509C118.689 21.8208 119.741 25.0426 119.74 28.35H119.73Z" fill="#FFD300"/>
<path d="M119.73 46.2204C115.557 46.2282 111.435 45.3094 107.66 43.5304C110.121 42.9623 112.407 41.8046 114.322 40.1572C116.236 38.5097 117.722 36.4218 118.651 34.073C119.579 31.7242 119.924 29.1849 119.654 26.6736C119.384 24.1623 118.508 21.7542 117.101 19.6565C115.694 17.5588 113.798 15.8343 111.577 14.6314C109.356 13.4286 106.877 12.7833 104.351 12.7513C101.825 12.7192 99.3298 13.3012 97.079 14.4473C94.8282 15.5934 92.8896 17.2691 91.4299 19.3304C89.6787 21.789 88.6815 24.7044 88.5599 27.7204C88.5599 27.9304 88.5599 28.1404 88.5599 28.3504C88.5599 28.5604 88.5599 28.8804 88.5599 29.1404C88.7216 34.0106 90.3565 38.7171 93.2486 42.6389C96.1407 46.5606 100.154 49.5131 104.759 51.1065C109.364 52.7 114.344 52.8595 119.041 51.5641C123.739 50.2686 127.933 47.579 131.07 43.8504C127.494 45.4142 123.633 46.2212 119.73 46.2204Z" fill="#FFD300"/>
<path d="M254.37 91.3303C254.37 91.065 254.475 90.8107 254.663 90.6231C254.85 90.4356 255.105 90.3303 255.37 90.3303H272.21V90.6603C272.21 98.1303 270 104.22 265.79 108.35C261.31 112.74 255.99 113.92 251.06 113.92C244.77 113.92 240.3 112.08 236.34 107.92C232.234 103.447 229.945 97.6024 229.921 91.5304C229.897 85.4584 232.14 79.5959 236.21 75.0902C240.554 70.8356 246.41 68.4797 252.49 68.5403C256.425 68.4865 260.31 69.4328 263.78 71.2903C266.317 72.7065 268.514 74.6585 270.22 77.0103C270.297 77.1177 270.351 77.2393 270.381 77.3681C270.41 77.4968 270.414 77.6301 270.392 77.7603C270.369 77.8904 270.322 78.0149 270.251 78.1264C270.18 78.238 270.088 78.3345 269.98 78.4103L266.32 81.0103C266.114 81.1563 265.86 81.219 265.61 81.1856C265.359 81.1522 265.131 81.0252 264.97 80.8303C263.658 79.1383 262.044 77.7041 260.21 76.6002C257.885 75.2717 255.237 74.614 252.56 74.7002C250.449 74.6382 248.348 75.007 246.385 75.7842C244.421 76.5613 242.637 77.7305 241.14 79.2203C238.199 82.54 236.564 86.8155 236.54 91.2508C236.516 95.6861 238.105 99.979 241.01 103.33C242.392 104.799 244.076 105.952 245.945 106.709C247.814 107.467 249.825 107.812 251.84 107.72C253.632 107.782 255.417 107.469 257.082 106.803C258.747 106.137 260.255 105.131 261.51 103.85C263.573 101.902 264.862 99.2741 265.14 96.4502H255.37C255.105 96.4502 254.85 96.3449 254.663 96.1574C254.475 95.9698 254.37 95.7155 254.37 95.4502V91.3303Z" fill="#184E24"/>
<path d="M296.56 95.7001C296.469 95.5726 296.409 95.4255 296.386 95.2707C296.362 95.1159 296.375 94.9577 296.424 94.8088C296.472 94.66 296.555 94.5246 296.666 94.4137C296.776 94.3027 296.911 94.2193 297.06 94.1701C299.644 93.3538 301.888 91.7104 303.445 89.4931C305.003 87.2758 305.788 84.6077 305.68 81.9001C305.68 79.9001 305.28 74.5601 300.36 71.2301C297.47 69.2301 293.97 68.5801 288.52 68.5801H281.52C281.255 68.5801 281 68.6854 280.813 68.873C280.625 69.0605 280.52 69.3149 280.52 69.5801V112.92C280.52 113.185 280.625 113.44 280.813 113.627C281 113.815 281.255 113.92 281.52 113.92H286.39C286.655 113.92 286.91 113.815 287.097 113.627C287.285 113.44 287.39 113.185 287.39 112.92V95.3601H288.08C288.241 95.3603 288.4 95.3996 288.543 95.4745C288.686 95.5493 288.808 95.6576 288.9 95.7901L301.15 113.49C301.242 113.623 301.364 113.731 301.507 113.806C301.65 113.881 301.809 113.92 301.97 113.92H307.77C307.955 113.921 308.136 113.87 308.294 113.773C308.452 113.677 308.58 113.539 308.664 113.374C308.748 113.209 308.784 113.025 308.769 112.84C308.755 112.656 308.689 112.479 308.58 112.33L296.56 95.7001ZM287.38 89.3801V75.0001H289.73C293.1 75.0001 299.09 75.6101 299.09 82.0001C299.09 89.2001 291.42 89.4101 289.53 89.4101L287.38 89.3801Z" fill="#184E24"/>
<path d="M335.58 68.5801C322.58 68.5801 313.08 78.4101 313.08 91.2501C313.08 104.09 322.61 113.92 335.58 113.92C348.55 113.92 358.09 104.09 358.09 91.2501C358.09 78.4101 348.55 68.5801 335.58 68.5801ZM335.58 107.76C326.31 107.76 319.69 100.94 319.69 91.2501C319.69 81.5601 326.31 74.7401 335.58 74.7401C344.85 74.7401 351.47 81.5501 351.47 91.2501C351.47 100.95 344.86 107.76 335.58 107.76Z" fill="#184E24"/>
<path d="M372.13 68.5801C372.395 68.5801 372.65 68.6854 372.837 68.873C373.025 69.0605 373.13 69.3149 373.13 69.5801V95.3801C373.13 97.7801 373.19 100.72 374.51 103.05C375.365 104.455 376.566 105.617 378 106.423C379.434 107.229 381.05 107.652 382.695 107.652C384.34 107.652 385.956 107.229 387.39 106.423C388.823 105.617 390.025 104.455 390.88 103.05C392.2 100.72 392.27 97.7801 392.27 95.3801V69.5801C392.27 69.3149 392.375 69.0605 392.563 68.873C392.75 68.6854 393.005 68.5801 393.27 68.5801H398C398.265 68.5801 398.52 68.6854 398.707 68.873C398.895 69.0605 399 69.3149 399 69.5801V97.1801C399.157 101.407 397.694 105.535 394.91 108.72C393.329 110.364 391.433 111.671 389.335 112.564C387.237 113.457 384.98 113.918 382.7 113.918C380.42 113.918 378.163 113.457 376.065 112.564C373.967 111.671 372.071 110.364 370.49 108.72C367.702 105.538 366.238 101.408 366.4 97.1801V69.5801C366.4 69.3149 366.505 69.0605 366.693 68.873C366.88 68.6854 367.135 68.5801 367.4 68.5801H372.13Z" fill="#184E24"/>
<path d="M428.43 70.9998C425.2 68.8198 421.36 68.5498 418.6 68.5498H409.71C409.445 68.5498 409.19 68.6552 409.003 68.8427C408.815 69.0302 408.71 69.2846 408.71 69.5498V112.9C408.71 113.165 408.815 113.419 409.003 113.607C409.19 113.794 409.445 113.9 409.71 113.9H414.57C414.835 113.9 415.09 113.794 415.277 113.607C415.465 113.419 415.57 113.165 415.57 112.9V95.4998H418.67C421.97 95.4998 426.07 95.0298 429.67 91.9698C431.08 90.728 432.198 89.1908 432.947 87.4677C433.695 85.7445 434.055 83.8777 434 81.9998C434.041 79.8507 433.555 77.7242 432.584 75.8065C431.613 73.8888 430.187 72.2384 428.43 70.9998ZM418.67 89.0798H415.57V74.9998H418.57C426.38 74.9998 427.39 79.4898 427.39 81.9998C427.42 86.1898 424.59 89.1098 418.67 89.1098V89.0798Z" fill="#184E24"/>
</g>
<defs>
<clipPath id="clip0_207_264">
<rect width="434.02" height="113.93" fill="white"/>
</clipPath>
</defs>
</svg>
