<svg width="100" height="100" viewBox="0 0 100 100" fill="none" xmlns="http://www.w3.org/2000/svg">
<g clip-path="url(#clip0_205_75)">
<path d="M79.1889 79.7252C78.3382 79.0748 77.1224 79.238 76.4725 80.0881C75.8225 80.9384 75.9851 82.1546 76.8354 82.8046L80.147 85.3356C80.4972 85.6032 80.9111 85.7338 81.3229 85.7338C81.8529 85.7338 82.3792 85.5172 82.76 85.0969L89.0898 78.1078C89.8081 77.3145 89.7477 76.089 88.9543 75.3706C88.1612 74.6523 86.9355 74.7129 86.2171 75.5061L81.0841 81.1739L79.1889 79.7252Z" fill="#F6871F"/>
<path d="M99.7642 69.3813C99.7421 68.3932 98.9799 67.5804 97.9957 67.4944C93.3858 67.0915 87.7129 63.9948 83.5429 59.6058C83.177 59.2209 82.6695 59.0029 82.1385 59.0027C82.1383 59.0027 82.1381 59.0027 82.1379 59.0027C81.6074 59.0027 81.0998 59.2204 80.734 59.6048C78.8622 61.5723 76.6895 63.279 74.4474 64.6008C70.5132 60.2089 65.6709 56.973 59.9955 54.9362C59.9461 54.9162 59.8961 54.8984 59.845 54.8825C59.4029 54.7259 58.9557 54.5765 58.5036 54.4343C63.3032 49.6474 66.5317 43.3568 66.5317 37.7136V34.669C68.8005 33.6811 70.3917 31.4165 70.3917 28.7863C70.3917 26.0541 68.672 23.7173 66.2588 22.7978C65.2628 13.1277 58.4499 4.99887 49.0915 2.30952C48.8149 0.992371 47.6447 0 46.2467 0H39.2245C37.8762 0 36.7427 0.923965 36.4156 2.17136C31.8123 3.39898 27.6075 6.01934 24.4551 9.66248C21.2553 13.3603 19.2655 17.9782 18.7601 22.7987C16.3458 23.7188 14.6255 26.0551 14.6255 28.7865C14.6255 31.4177 16.219 33.6829 18.4909 34.6702V37.7138C18.4909 43.3517 21.72 49.6447 26.5194 54.4348C26.0805 54.5728 25.6459 54.7172 25.2162 54.8687C25.1317 54.8928 25.0496 54.9224 24.9696 54.9575C18.6173 57.249 13.314 61.0421 9.1608 66.2803C5.16651 71.3183 2.32699 77.5398 0.721291 84.7734C0.14982 87.3585 -0.279994 90.6071 1.48267 92.8019C3.20445 94.9457 6.28523 95.2205 8.77711 95.2205H21.4535C22.5238 95.2205 23.3914 94.3527 23.3914 93.2826C23.3914 92.2126 22.5238 91.3448 21.4535 91.3448H8.77711C6.45886 91.3448 5.02137 91.0185 4.50455 90.3749C3.95711 89.6932 3.95749 88.09 4.50513 85.6115C6.51913 76.54 11.4436 65.4391 23.3084 59.8343C22.9435 66.3809 26.4908 70.66 28.7454 73.3759C29.0906 73.7918 29.5936 74.0445 30.1333 74.0734C30.6726 74.1032 31.2001 73.9044 31.5875 73.5277L42.5088 62.9067L53.4353 73.5281C53.7979 73.8804 54.2828 74.0763 54.786 74.0763C54.8207 74.0763 54.8554 74.0753 54.8905 74.0734C55.4302 74.0443 55.9334 73.791 56.2784 73.3746C58.5299 70.6564 62.0719 66.3747 61.7103 59.8418C65.1525 61.4747 68.1938 63.6584 70.8091 66.3788C69.2474 66.9832 67.7118 67.3694 66.28 67.4946C65.2963 67.5804 64.5345 68.3926 64.5115 69.3799C64.3493 76.3083 65.5041 81.2721 68.6282 87.0819C68.6546 87.1311 69.7103 89.0236 71.3554 91.3452H38.9974C37.9271 91.3452 37.0596 92.213 37.0596 93.283C37.0596 94.3531 37.9271 95.2209 38.9974 95.2209H74.4331C76.7693 97.8029 79.5247 100 82.1377 100C88.4419 100 95.5779 87.2112 95.6465 87.0833C98.7656 81.2725 99.92 76.3094 99.7642 69.3813ZM62.3033 22.3794H51.6339C49.6182 17.1137 49.2368 12.7716 49.1684 6.39741C56.158 8.86952 61.2392 15.0369 62.3033 22.3794ZM40.1925 3.87569H45.2786C45.2908 11.3767 45.4809 16.457 47.5115 22.3794H37.9634C39.9906 16.4568 40.1805 11.3759 40.1925 3.87569ZM36.3046 6.24451C36.2406 12.7026 35.8701 17.0714 33.842 22.3796H22.7184C23.8237 14.9416 29.1706 8.60694 36.3046 6.24451ZM21.0381 26.2551H34.0019C34.116 26.3477 34.2264 26.3595 34.3191 26.2551H63.9846C65.3804 26.2551 66.516 27.3905 66.516 28.7865C66.516 30.1854 65.3806 31.3235 63.9846 31.3235H21.0381C19.6393 31.3235 18.5012 30.1854 18.5012 28.7865C18.5012 27.3907 19.6391 26.2551 21.0381 26.2551ZM22.3666 37.7138V35.199H62.6558V37.7138C62.6558 45.102 55.4982 54.2395 47.3383 57.2686C43.7678 58.5954 41.2329 58.5942 37.6541 57.2643C29.5103 54.2229 22.3666 45.0869 22.3666 37.7138ZM30.4091 69.2673C28.4034 66.6489 26.4722 63.2112 27.4004 58.221C28.2552 57.9451 29.1384 57.6933 30.0543 57.4707C32.0084 58.9043 34.116 60.0802 36.3009 60.8962C37.0042 61.1574 37.6809 61.3727 38.3428 61.5518L30.4091 69.2673ZM54.6116 69.2662L46.673 61.5495C47.3265 61.3721 47.9943 61.1596 48.6876 60.9018C50.8834 60.0868 53.0013 58.9086 54.9645 57.4703C55.8691 57.6904 56.7537 57.9398 57.6168 58.2193C58.5472 63.2024 56.6167 66.6437 54.6116 69.2662ZM92.231 85.2512C89.9393 89.5283 84.5724 96.1243 82.1377 96.1243C79.703 96.1243 74.3362 89.5283 72.0431 85.2485C69.4823 80.4869 68.4314 76.516 68.3744 71.1094C70.4649 70.7116 72.6413 69.9314 74.7815 68.842C74.8567 68.8092 74.9299 68.7706 75.0018 68.7276C77.5009 67.4287 79.9449 65.7096 82.137 63.6666C86.2642 67.5171 91.2888 70.2326 95.8995 71.1096C95.8385 76.517 94.7878 80.4886 92.231 85.2512Z" fill="#F6871F"/>
<path d="M30.2254 91.3447C29.1551 91.3447 28.2875 92.2125 28.2875 93.2826C28.2875 94.3527 29.1551 95.2204 30.2254 95.2204H30.2364C31.3067 95.2204 32.1687 94.3527 32.1687 93.2826C32.1687 92.2125 31.2957 91.3447 30.2254 91.3447Z" fill="#F6871F"/>
</g>
<defs>
<clipPath id="clip0_205_75">
<rect width="100" height="100" fill="white"/>
</clipPath>
</defs>
</svg>
